<svg width="156" height="8" viewBox="0 0 156 8" fill="none" xmlns="http://www.w3.org/2000/svg">
<path d="M0.983945 0.275999L1.25995 0.3V6.192C1.25995 6.608 1.33195 6.908 1.47595 7.092C1.62795 7.268 1.86795 7.356 2.19595 7.356C2.21995 7.356 2.23195 7.38 2.23195 7.428C2.23195 7.476 2.21995 7.5 2.19595 7.5C1.99595 7.5 1.84395 7.496 1.73995 7.488L1.13995 7.476L0.527945 7.488C0.415945 7.496 0.251945 7.5 0.0359453 7.5C0.0199453 7.5 0.0119453 7.476 0.0119453 7.428C0.0119453 7.38 0.0199453 7.356 0.0359453 7.356C0.379945 7.356 0.623945 7.268 0.767945 7.092C0.911945 6.908 0.983945 6.608 0.983945 6.192V0.275999ZM7.03195 7.644C7.03195 7.66 7.01195 7.672 6.97195 7.68C6.93195 7.688 6.90395 7.684 6.88795 7.668L1.36795 0.983999C1.11195 0.672 0.875945 0.456 0.659945 0.336C0.451945 0.208 0.243945 0.144 0.0359453 0.144C0.0119453 0.144 -5.46575e-05 0.12 -5.46575e-05 0.0719998C-5.46575e-05 0.0239999 0.0119453 0 0.0359453 0L0.479945 0.0119998C0.575945 0.0199997 0.707945 0.0239997 0.875945 0.0239997C1.05195 0.0239997 1.19595 0.0199997 1.30795 0.0119998C1.41995 0.00399995 1.50795 0 1.57195 0C1.62795 0 1.67195 0.0159998 1.70395 0.0479994C1.74395 0.0719995 1.78795 0.128 1.83595 0.215999C1.93195 0.359999 2.03195 0.496 2.13595 0.624L6.93595 6.516L7.03195 7.644ZM7.03195 7.644L6.75595 7.272V1.32C6.75595 0.904 6.68395 0.604 6.53995 0.42C6.40395 0.236 6.17195 0.144 5.84395 0.144C5.82795 0.144 5.81995 0.12 5.81995 0.0719998C5.81995 0.0239999 5.82795 0 5.84395 0L6.31195 0.0119998C6.55195 0.0279996 6.74795 0.0359995 6.89995 0.0359995C7.04395 0.0359995 7.24395 0.0279996 7.49995 0.0119998L7.99195 0C8.01595 0 8.02795 0.0239999 8.02795 0.0719998C8.02795 0.12 8.01595 0.144 7.99195 0.144C7.65595 0.144 7.41195 0.236 7.25995 0.42C7.10795 0.604 7.03195 0.904 7.03195 1.32V7.644ZM11.5627 7.644C11.0027 7.644 10.5027 7.512 10.0627 7.248C9.6307 6.984 9.2947 6.628 9.0547 6.18C8.8147 5.732 8.6947 5.248 8.6947 4.728C8.6947 4.104 8.8547 3.568 9.1747 3.12C9.5027 2.664 9.9147 2.32 10.4107 2.088C10.9147 1.856 11.4267 1.74 11.9467 1.74C12.5067 1.74 12.9987 1.88 13.4227 2.16C13.8547 2.432 14.1827 2.788 14.4067 3.228C14.6387 3.668 14.7547 4.128 14.7547 4.608C14.7547 5.144 14.6107 5.648 14.3227 6.12C14.0347 6.584 13.6467 6.956 13.1587 7.236C12.6707 7.508 12.1387 7.644 11.5627 7.644ZM11.8747 7.392C12.4987 7.392 12.9947 7.172 13.3627 6.732C13.7387 6.292 13.9267 5.684 13.9267 4.908C13.9267 4.372 13.8307 3.884 13.6387 3.444C13.4547 3.004 13.1827 2.652 12.8227 2.388C12.4627 2.124 12.0347 1.992 11.5387 1.992C10.8987 1.992 10.4027 2.208 10.0507 2.64C9.6987 3.064 9.5227 3.66 9.5227 4.428C9.5227 4.98 9.6147 5.48 9.7987 5.928C9.9907 6.376 10.2627 6.732 10.6147 6.996C10.9747 7.26 11.3947 7.392 11.8747 7.392ZM17.8765 7.644C17.4205 7.644 17.0405 7.516 16.7365 7.26C16.4405 7.004 16.2925 6.58 16.2925 5.988V2.844C16.2925 2.644 16.2765 2.504 16.2445 2.424C16.2205 2.336 16.1645 2.28 16.0765 2.256C15.9965 2.224 15.8605 2.208 15.6685 2.208C15.6445 2.208 15.6325 2.184 15.6325 2.136C15.6325 2.08 15.6445 2.052 15.6685 2.052C15.9885 2.052 16.2565 1.968 16.4725 1.8C16.6965 1.632 16.8165 1.416 16.8325 1.152C16.8325 1.128 16.8605 1.116 16.9165 1.116C16.9485 1.116 16.9685 1.196 16.9765 1.356C16.9925 1.516 17.0005 1.964 17.0005 2.7C17.0085 3.428 17.0125 4.396 17.0125 5.604C17.0125 6.164 17.1205 6.58 17.3365 6.852C17.5525 7.116 17.8805 7.248 18.3205 7.248C18.7445 7.248 19.1165 7.14 19.4365 6.924L19.4605 6.912C19.4845 6.912 19.5045 6.932 19.5205 6.972C19.5365 7.004 19.5325 7.028 19.5085 7.044C19.1805 7.26 18.8925 7.412 18.6445 7.5C18.4045 7.596 18.1485 7.644 17.8765 7.644ZM19.1485 2.52C18.4525 2.336 17.6765 2.244 16.8205 2.244V2.028C17.3725 2.028 18.1605 1.992 19.1845 1.92C19.2085 1.92 19.2285 1.944 19.2445 1.992C19.2605 2.04 19.2685 2.104 19.2685 2.184C19.2685 2.256 19.2525 2.332 19.2205 2.412C19.1965 2.492 19.1725 2.528 19.1485 2.52ZM22.921 7.5C22.905 7.5 22.897 7.476 22.897 7.428C22.897 7.38 22.905 7.356 22.921 7.356C23.185 7.356 23.377 7.336 23.497 7.296C23.617 7.256 23.697 7.18 23.737 7.068C23.785 6.948 23.809 6.768 23.809 6.528V2.856C23.809 2.616 23.785 2.44 23.737 2.328C23.697 2.216 23.617 2.14 23.497 2.1C23.377 2.052 23.185 2.028 22.921 2.028C22.905 2.028 22.897 2.004 22.897 1.956C22.897 1.908 22.905 1.884 22.921 1.884H27.097C27.177 1.884 27.217 1.916 27.217 1.98L27.229 2.724C27.237 2.876 27.241 3.068 27.241 3.3C27.241 3.324 27.217 3.336 27.169 3.336C27.121 3.336 27.097 3.324 27.097 3.3C27.057 2.916 26.925 2.612 26.701 2.388C26.477 2.156 26.185 2.04 25.825 2.04H25.489C25.209 2.04 25.005 2.064 24.877 2.112C24.749 2.152 24.661 2.228 24.613 2.34C24.565 2.452 24.541 2.628 24.541 2.868V6.48C24.541 6.736 24.569 6.924 24.625 7.044C24.681 7.156 24.789 7.236 24.949 7.284C25.117 7.332 25.377 7.356 25.729 7.356C25.753 7.356 25.765 7.38 25.765 7.428C25.765 7.476 25.753 7.5 25.729 7.5C25.441 7.5 25.221 7.496 25.069 7.488L24.169 7.476L23.521 7.488C23.385 7.496 23.185 7.5 22.921 7.5ZM26.605 5.064C26.573 5.064 26.397 5.04 26.077 4.992C25.765 4.936 25.149 4.908 24.229 4.908V4.644C25.141 4.644 25.753 4.628 26.065 4.596C26.385 4.556 26.565 4.536 26.605 4.536C26.645 4.536 26.665 4.62 26.665 4.788C26.665 4.972 26.645 5.064 26.605 5.064ZM30.9221 7.644C30.3621 7.644 29.8621 7.512 29.4221 7.248C28.9901 6.984 28.6541 6.628 28.4141 6.18C28.1741 5.732 28.0541 5.248 28.0541 4.728C28.0541 4.104 28.2141 3.568 28.5341 3.12C28.8621 2.664 29.2741 2.32 29.7701 2.088C30.2741 1.856 30.7861 1.74 31.3061 1.74C31.8661 1.74 32.3581 1.88 32.7821 2.16C33.2141 2.432 33.5421 2.788 33.7661 3.228C33.9981 3.668 34.1141 4.128 34.1141 4.608C34.1141 5.144 33.9701 5.648 33.6821 6.12C33.3941 6.584 33.0061 6.956 32.5181 7.236C32.0301 7.508 31.4981 7.644 30.9221 7.644ZM31.2341 7.392C31.8581 7.392 32.3541 7.172 32.7221 6.732C33.0981 6.292 33.2861 5.684 33.2861 4.908C33.2861 4.372 33.1901 3.884 32.9981 3.444C32.8141 3.004 32.5421 2.652 32.1821 2.388C31.8221 2.124 31.3941 1.992 30.8981 1.992C30.2581 1.992 29.7621 2.208 29.4101 2.64C29.0581 3.064 28.8821 3.66 28.8821 4.428C28.8821 4.98 28.9741 5.48 29.1581 5.928C29.3501 6.376 29.6221 6.732 29.9741 6.996C30.3341 7.26 30.7541 7.392 31.2341 7.392ZM37.4999 7.356C37.5159 7.356 37.5239 7.38 37.5239 7.428C37.5239 7.476 37.5159 7.5 37.4999 7.5C37.2759 7.5 37.1039 7.496 36.9839 7.488L36.2279 7.476L35.5199 7.488C35.3839 7.496 35.1999 7.5 34.9679 7.5C34.9519 7.5 34.9439 7.476 34.9439 7.428C34.9439 7.38 34.9519 7.356 34.9679 7.356C35.2319 7.356 35.4239 7.336 35.5439 7.296C35.6719 7.256 35.7599 7.18 35.8079 7.068C35.8559 6.948 35.8799 6.768 35.8799 6.528V2.856C35.8799 2.616 35.8559 2.44 35.8079 2.328C35.7679 2.216 35.6839 2.14 35.5559 2.1C35.4359 2.052 35.2439 2.028 34.9799 2.028C34.9639 2.028 34.9559 2.004 34.9559 1.956C34.9559 1.908 34.9639 1.884 34.9799 1.884L35.5319 1.896C35.8199 1.912 36.0519 1.92 36.2279 1.92C36.3719 1.92 36.5039 1.916 36.6239 1.908C36.7519 1.9 36.8599 1.892 36.9479 1.884C37.2039 1.86 37.4399 1.848 37.6559 1.848C38.1759 1.848 38.5719 1.948 38.8439 2.148C39.1159 2.348 39.2519 2.636 39.2519 3.012C39.2519 3.34 39.1559 3.644 38.9639 3.924C38.7719 4.204 38.5079 4.428 38.1719 4.596C37.8359 4.756 37.4679 4.836 37.0679 4.836C36.8119 4.836 36.5919 4.82 36.4079 4.788L36.3959 4.548C36.5959 4.604 36.8479 4.632 37.1519 4.632C37.6479 4.632 37.9919 4.524 38.1839 4.308C38.3839 4.084 38.4839 3.76 38.4839 3.336C38.4839 2.456 38.1039 2.016 37.3439 2.016C37.0399 2.016 36.8399 2.08 36.7439 2.208C36.6559 2.336 36.6119 2.56 36.6119 2.88V6.528C36.6119 6.776 36.6319 6.956 36.6719 7.068C36.7119 7.18 36.7919 7.256 36.9119 7.296C37.0319 7.336 37.2279 7.356 37.4999 7.356ZM41.0639 7.356C41.0799 7.356 41.0879 7.38 41.0879 7.428C41.0879 7.476 41.0799 7.5 41.0639 7.5H39.6599C39.5159 7.5 39.2559 7.252 38.8799 6.756C38.5039 6.26 38.0559 5.58 37.5359 4.716L38.1719 4.464C38.6359 5.224 39.0239 5.808 39.3359 6.216C39.6479 6.624 39.9359 6.916 40.1999 7.092C40.4719 7.268 40.7599 7.356 41.0639 7.356ZM49.1708 2.88C49.1708 2.64 49.1468 2.464 49.0988 2.352C49.0588 2.232 48.9748 2.148 48.8468 2.1C48.7268 2.052 48.5388 2.028 48.2828 2.028C48.2588 2.028 48.2468 2.004 48.2468 1.956C48.2468 1.908 48.2588 1.884 48.2828 1.884L48.8108 1.896C49.0988 1.912 49.3428 1.92 49.5428 1.92C49.7188 1.92 49.9588 1.912 50.2628 1.896L50.8028 1.884C50.8268 1.884 50.8388 1.908 50.8388 1.956C50.8388 2.004 50.8268 2.028 50.8028 2.028C50.5388 2.028 50.3428 2.052 50.2148 2.1C50.0948 2.14 50.0108 2.216 49.9628 2.328C49.9148 2.44 49.8908 2.616 49.8908 2.856V6.528C49.8908 6.768 49.9148 6.948 49.9628 7.068C50.0108 7.18 50.0948 7.256 50.2148 7.296C50.3428 7.336 50.5388 7.356 50.8028 7.356C50.8268 7.356 50.8388 7.38 50.8388 7.428C50.8388 7.476 50.8268 7.5 50.8028 7.5C50.5788 7.5 50.3988 7.496 50.2628 7.488L49.5428 7.476L48.8108 7.488C48.6828 7.496 48.5068 7.5 48.2828 7.5C48.2588 7.5 48.2468 7.476 48.2468 7.428C48.2468 7.38 48.2588 7.356 48.2828 7.356C48.5468 7.356 48.7388 7.336 48.8588 7.296C48.9788 7.256 49.0588 7.18 49.0988 7.068C49.1468 6.948 49.1708 6.768 49.1708 6.528V2.88ZM45.4148 4.56H49.4828V4.776H45.4148V4.56ZM45.0908 2.856C45.0908 2.616 45.0668 2.44 45.0188 2.328C44.9788 2.216 44.8948 2.14 44.7668 2.1C44.6468 2.052 44.4548 2.028 44.1908 2.028C44.1748 2.028 44.1668 2.004 44.1668 1.956C44.1668 1.908 44.1748 1.884 44.1908 1.884L44.7308 1.896C45.0348 1.912 45.2708 1.92 45.4388 1.92C45.6388 1.92 45.8908 1.912 46.1948 1.896L46.7108 1.884C46.7268 1.884 46.7348 1.908 46.7348 1.956C46.7348 2.004 46.7268 2.028 46.7108 2.028C46.4548 2.028 46.2628 2.052 46.1348 2.1C46.0068 2.148 45.9188 2.232 45.8708 2.352C45.8308 2.464 45.8108 2.64 45.8108 2.88V6.528C45.8108 6.776 45.8308 6.956 45.8708 7.068C45.9188 7.18 46.0028 7.256 46.1228 7.296C46.2428 7.336 46.4388 7.356 46.7108 7.356C46.7268 7.356 46.7348 7.38 46.7348 7.428C46.7348 7.476 46.7268 7.5 46.7108 7.5C46.4868 7.5 46.3108 7.496 46.1828 7.488L45.4388 7.476L44.7308 7.488C44.5948 7.496 44.4108 7.5 44.1788 7.5C44.1628 7.5 44.1548 7.476 44.1548 7.428C44.1548 7.38 44.1628 7.356 44.1788 7.356C44.4428 7.356 44.6348 7.336 44.7548 7.296C44.8828 7.256 44.9708 7.18 45.0188 7.068C45.0668 6.948 45.0908 6.768 45.0908 6.528V2.856ZM56.5636 2.88C56.5636 2.64 56.5436 2.464 56.5036 2.352C56.4636 2.232 56.3836 2.148 56.2636 2.1C56.1436 2.052 55.9556 2.028 55.6996 2.028C55.6836 2.028 55.6756 2.004 55.6756 1.956C55.6756 1.908 55.6836 1.884 55.6996 1.884L56.2276 1.896C56.5316 1.912 56.7756 1.92 56.9596 1.92C57.1276 1.92 57.3636 1.912 57.6676 1.896L58.1956 1.884C58.2116 1.884 58.2196 1.908 58.2196 1.956C58.2196 2.004 58.2116 2.028 58.1956 2.028C57.9316 2.028 57.7356 2.052 57.6076 2.1C57.4876 2.14 57.4036 2.216 57.3556 2.328C57.3076 2.44 57.2836 2.616 57.2836 2.856V6.528C57.2836 6.768 57.3036 6.948 57.3436 7.068C57.3916 7.18 57.4756 7.256 57.5956 7.296C57.7156 7.336 57.9036 7.356 58.1596 7.356C58.1836 7.356 58.1956 7.38 58.1956 7.428C58.1956 7.476 58.1836 7.5 58.1596 7.5L57.3796 7.488L56.7916 7.5C56.6956 7.5 56.6316 7.488 56.5996 7.464C56.5756 7.44 56.5636 7.376 56.5636 7.272V2.88ZM56.9836 6.12C56.5356 6.648 56.0916 7.036 55.6516 7.284C55.2196 7.524 54.7636 7.644 54.2836 7.644C53.7156 7.644 53.2436 7.496 52.8676 7.2C52.4996 6.896 52.3156 6.48 52.3156 5.952V2.856C52.3156 2.616 52.2956 2.44 52.2556 2.328C52.2236 2.216 52.1556 2.14 52.0516 2.1C51.9556 2.052 51.7996 2.028 51.5836 2.028C51.5676 2.028 51.5596 2.004 51.5596 1.956C51.5596 1.908 51.5676 1.884 51.5836 1.884L52.0516 1.896C52.3236 1.912 52.5316 1.92 52.6756 1.92C52.8756 1.92 53.1276 1.912 53.4316 1.896L53.9236 1.884C53.9396 1.884 53.9476 1.908 53.9476 1.956C53.9476 2.004 53.9396 2.028 53.9236 2.028C53.6676 2.028 53.4756 2.052 53.3476 2.1C53.2276 2.148 53.1436 2.232 53.0956 2.352C53.0556 2.464 53.0356 2.64 53.0356 2.88V5.544C53.0356 6.728 53.5596 7.32 54.6076 7.32C55.0076 7.32 55.3836 7.22 55.7356 7.02C56.0876 6.82 56.4636 6.484 56.8636 6.012L56.9836 6.12ZM66.6342 7.5C66.6182 7.5 66.6102 7.476 66.6102 7.428C66.6102 7.38 66.6182 7.356 66.6342 7.356C66.8982 7.356 67.0902 7.336 67.2102 7.296C67.3382 7.256 67.4222 7.18 67.4622 7.068C67.5102 6.948 67.5342 6.768 67.5342 6.528V3.96C67.5342 3.32 67.4262 2.844 67.2102 2.532C66.9942 2.22 66.6662 2.064 66.2262 2.064C65.8502 2.064 65.4902 2.172 65.1462 2.388C64.8022 2.604 64.4902 2.916 64.2102 3.324L64.1142 3.18C64.5222 2.668 64.9222 2.3 65.3142 2.076C65.7062 1.844 66.1182 1.728 66.5502 1.728C67.0862 1.728 67.5022 1.888 67.7982 2.208C68.0942 2.52 68.2422 2.984 68.2422 3.6V6.528C68.2422 6.776 68.2622 6.956 68.3022 7.068C68.3502 7.18 68.4342 7.256 68.5542 7.296C68.6742 7.336 68.8702 7.356 69.1422 7.356C69.1582 7.356 69.1662 7.38 69.1662 7.428C69.1662 7.476 69.1582 7.5 69.1422 7.5C68.9262 7.5 68.7582 7.496 68.6382 7.488L67.8822 7.476L67.1502 7.488C67.0222 7.496 66.8502 7.5 66.6342 7.5ZM62.8542 7.5C62.8382 7.5 62.8302 7.476 62.8302 7.428C62.8302 7.38 62.8382 7.356 62.8542 7.356C63.1182 7.356 63.3102 7.336 63.4302 7.296C63.5582 7.256 63.6422 7.18 63.6822 7.068C63.7302 6.948 63.7542 6.768 63.7542 6.528V3.96C63.7542 3.32 63.6462 2.844 63.4302 2.532C63.2142 2.22 62.8862 2.064 62.4462 2.064C62.0702 2.064 61.7102 2.172 61.3662 2.388C61.0222 2.596 60.7062 2.908 60.4182 3.324L60.3342 3.18C60.7422 2.676 61.1422 2.308 61.5342 2.076C61.9262 1.844 62.3382 1.728 62.7702 1.728C63.3062 1.728 63.7222 1.888 64.0182 2.208C64.3142 2.52 64.4622 2.984 64.4622 3.6V6.528C64.4622 6.768 64.4822 6.948 64.5222 7.068C64.5702 7.18 64.6542 7.256 64.7742 7.296C64.8942 7.336 65.0862 7.356 65.3502 7.356C65.3742 7.356 65.3862 7.38 65.3862 7.428C65.3862 7.476 65.3742 7.5 65.3502 7.5C65.1422 7.5 64.9782 7.496 64.8582 7.488L64.0902 7.476L63.3582 7.488C63.2382 7.496 63.0702 7.5 62.8542 7.5ZM59.0742 7.5C59.0502 7.5 59.0382 7.476 59.0382 7.428C59.0382 7.38 59.0502 7.356 59.0742 7.356C59.3302 7.356 59.5182 7.336 59.6382 7.296C59.7582 7.256 59.8382 7.18 59.8782 7.068C59.9262 6.948 59.9502 6.768 59.9502 6.528V2.856C59.9502 2.616 59.9262 2.44 59.8782 2.328C59.8382 2.216 59.7542 2.14 59.6262 2.1C59.4982 2.052 59.3022 2.028 59.0382 2.028C59.0222 2.028 59.0142 2.004 59.0142 1.956C59.0142 1.908 59.0222 1.884 59.0382 1.884L59.9142 1.896L60.4422 1.884C60.5462 1.884 60.6102 1.9 60.6342 1.932C60.6582 1.956 60.6702 2.016 60.6702 2.112V6.528C60.6702 6.776 60.6902 6.956 60.7302 7.068C60.7782 7.18 60.8622 7.256 60.9822 7.296C61.1022 7.336 61.2982 7.356 61.5702 7.356C61.5862 7.356 61.5942 7.38 61.5942 7.428C61.5942 7.476 61.5862 7.5 61.5702 7.5C61.3542 7.5 61.1862 7.496 61.0662 7.488L60.2982 7.476L59.5782 7.488C59.4502 7.496 59.2822 7.5 59.0742 7.5ZM73.7345 7.572C73.7025 7.588 73.6745 7.596 73.6505 7.596C73.5065 7.596 73.3665 7.5 73.2305 7.308C73.1025 7.108 73.0385 6.84 73.0385 6.504V3.456C73.0385 2.968 72.9665 2.612 72.8225 2.388C72.6865 2.164 72.4665 2.052 72.1625 2.052C71.7945 2.052 71.5225 2.168 71.3465 2.4C71.1785 2.624 71.0465 2.92 70.9505 3.288C70.9105 3.424 70.8545 3.536 70.7825 3.624C70.7185 3.704 70.6185 3.744 70.4825 3.744C70.3545 3.744 70.2505 3.708 70.1705 3.636C70.0905 3.556 70.0505 3.46 70.0505 3.348C70.0505 3.148 70.1905 2.924 70.4705 2.676C70.7585 2.428 71.1065 2.216 71.5145 2.04C71.9225 1.864 72.2905 1.776 72.6185 1.776C72.9625 1.776 73.2385 1.888 73.4465 2.112C73.6545 2.328 73.7585 2.656 73.7585 3.096V6.096C73.7585 6.696 73.9545 6.996 74.3465 6.996C74.5065 6.996 74.7025 6.944 74.9345 6.84H74.9585C74.9905 6.84 75.0105 6.86 75.0185 6.9C75.0345 6.932 75.0265 6.956 74.9945 6.972L73.7345 7.572ZM71.0345 7.584C70.7545 7.584 70.5185 7.5 70.3265 7.332C70.1345 7.164 70.0385 6.972 70.0385 6.756C70.0385 6.452 70.1385 6.208 70.3385 6.024C70.5385 5.84 70.9105 5.648 71.4545 5.448L73.1705 4.824L73.1945 4.968L71.7065 5.544C71.4105 5.656 71.2025 5.784 71.0825 5.928C70.9625 6.072 70.9025 6.244 70.9025 6.444C70.9025 6.636 70.9665 6.804 71.0945 6.948C71.2305 7.084 71.3865 7.152 71.5625 7.152C71.7545 7.152 71.9665 7.092 72.1985 6.972L73.2785 6.42L73.3025 6.576L72.2465 7.164C71.9665 7.316 71.7345 7.424 71.5505 7.488C71.3665 7.552 71.1945 7.584 71.0345 7.584ZM77.041 6.504C77.041 6.744 77.061 6.924 77.101 7.044C77.149 7.156 77.233 7.236 77.353 7.284C77.473 7.332 77.657 7.356 77.905 7.356C77.929 7.356 77.941 7.38 77.941 7.428C77.941 7.476 77.929 7.5 77.905 7.5C77.689 7.5 77.517 7.496 77.389 7.488L76.657 7.476L75.949 7.488C75.821 7.496 75.645 7.5 75.421 7.5C75.405 7.5 75.397 7.476 75.397 7.428C75.397 7.38 75.405 7.356 75.421 7.356C75.677 7.356 75.865 7.336 75.985 7.296C76.113 7.248 76.201 7.168 76.249 7.056C76.297 6.944 76.321 6.768 76.321 6.528V2.856C76.321 2.616 76.297 2.44 76.249 2.328C76.209 2.216 76.129 2.14 76.009 2.1C75.889 2.052 75.705 2.028 75.457 2.028C75.433 2.028 75.421 2.004 75.421 1.956C75.421 1.908 75.433 1.884 75.457 1.884L76.237 1.896L76.825 1.884C76.921 1.884 76.981 1.9 77.005 1.932C77.029 1.956 77.041 2.016 77.041 2.112V6.504ZM76.633 3.276C77.081 2.74 77.521 2.352 77.953 2.112C78.385 1.864 78.845 1.74 79.333 1.74C79.925 1.74 80.401 1.904 80.761 2.232C81.121 2.552 81.301 3.048 81.301 3.72V6.528C81.301 6.768 81.317 6.948 81.349 7.068C81.389 7.18 81.457 7.256 81.553 7.296C81.657 7.336 81.817 7.356 82.033 7.356C82.049 7.356 82.057 7.38 82.057 7.428C82.057 7.476 82.049 7.5 82.033 7.5C81.833 7.5 81.677 7.496 81.565 7.488L80.929 7.476L80.173 7.488C80.053 7.496 79.893 7.5 79.693 7.5C79.677 7.5 79.669 7.476 79.669 7.428C79.669 7.38 79.677 7.356 79.693 7.356C79.949 7.356 80.137 7.332 80.257 7.284C80.385 7.236 80.469 7.156 80.509 7.044C80.557 6.924 80.581 6.744 80.581 6.504V4.116C80.581 3.348 80.445 2.816 80.173 2.52C79.909 2.216 79.525 2.064 79.021 2.064C78.621 2.064 78.245 2.164 77.893 2.364C77.549 2.556 77.169 2.896 76.753 3.384L76.633 3.276ZM88.7056 1.74C89.0096 1.74 89.3336 1.772 89.6776 1.836C90.0296 1.892 90.3136 1.976 90.5296 2.088C90.5856 2.112 90.6216 2.136 90.6376 2.16C90.6536 2.184 90.6656 2.228 90.6736 2.292L90.7936 3.528C90.7936 3.552 90.7696 3.568 90.7216 3.576C90.6816 3.584 90.6576 3.572 90.6496 3.54C90.5056 2.988 90.2416 2.58 89.8576 2.316C89.4816 2.052 89.0136 1.92 88.4536 1.92C88.0376 1.92 87.6616 2.032 87.3256 2.256C86.9896 2.48 86.7256 2.788 86.5336 3.18C86.3496 3.564 86.2576 4 86.2576 4.488C86.2576 4.984 86.3536 5.464 86.5456 5.928C86.7376 6.384 87.0216 6.756 87.3976 7.044C87.7816 7.332 88.2416 7.476 88.7776 7.476C89.2656 7.476 89.6776 7.34 90.0136 7.068C90.3576 6.796 90.6056 6.38 90.7576 5.82C90.7576 5.796 90.7776 5.784 90.8176 5.784C90.8336 5.784 90.8496 5.792 90.8656 5.808C90.8896 5.816 90.9016 5.824 90.9016 5.832L90.7456 7.104C90.7376 7.168 90.7256 7.212 90.7096 7.236C90.6936 7.26 90.6496 7.288 90.5776 7.32C89.9616 7.536 89.3216 7.644 88.6576 7.644C87.8976 7.644 87.2736 7.492 86.7856 7.188C86.2976 6.884 85.9456 6.504 85.7296 6.048C85.5136 5.592 85.4056 5.132 85.4056 4.668C85.4056 4.124 85.5496 3.628 85.8376 3.18C86.1256 2.732 86.5216 2.38 87.0256 2.124C87.5296 1.868 88.0896 1.74 88.7056 1.74ZM94.6486 7.644C94.0886 7.644 93.5886 7.512 93.1486 7.248C92.7166 6.984 92.3806 6.628 92.1406 6.18C91.9006 5.732 91.7806 5.248 91.7806 4.728C91.7806 4.104 91.9406 3.568 92.2606 3.12C92.5886 2.664 93.0006 2.32 93.4966 2.088C94.0006 1.856 94.5126 1.74 95.0326 1.74C95.5926 1.74 96.0846 1.88 96.5086 2.16C96.9406 2.432 97.2686 2.788 97.4926 3.228C97.7246 3.668 97.8406 4.128 97.8406 4.608C97.8406 5.144 97.6966 5.648 97.4086 6.12C97.1206 6.584 96.7326 6.956 96.2446 7.236C95.7566 7.508 95.2246 7.644 94.6486 7.644ZM94.9606 7.392C95.5846 7.392 96.0806 7.172 96.4486 6.732C96.8246 6.292 97.0126 5.684 97.0126 4.908C97.0126 4.372 96.9166 3.884 96.7246 3.444C96.5406 3.004 96.2686 2.652 95.9086 2.388C95.5486 2.124 95.1206 1.992 94.6246 1.992C93.9846 1.992 93.4886 2.208 93.1366 2.64C92.7846 3.064 92.6086 3.66 92.6086 4.428C92.6086 4.98 92.7006 5.48 92.8846 5.928C93.0766 6.376 93.3486 6.732 93.7006 6.996C94.0606 7.26 94.4806 7.392 94.9606 7.392ZM100.314 6.504C100.314 6.744 100.334 6.924 100.374 7.044C100.422 7.156 100.506 7.236 100.626 7.284C100.746 7.332 100.93 7.356 101.178 7.356C101.202 7.356 101.214 7.38 101.214 7.428C101.214 7.476 101.202 7.5 101.178 7.5C100.962 7.5 100.79 7.496 100.662 7.488L99.9304 7.476L99.2224 7.488C99.0944 7.496 98.9184 7.5 98.6944 7.5C98.6784 7.5 98.6704 7.476 98.6704 7.428C98.6704 7.38 98.6784 7.356 98.6944 7.356C98.9504 7.356 99.1384 7.336 99.2584 7.296C99.3864 7.248 99.4744 7.168 99.5224 7.056C99.5704 6.944 99.5944 6.768 99.5944 6.528V2.856C99.5944 2.616 99.5704 2.44 99.5224 2.328C99.4824 2.216 99.4024 2.14 99.2824 2.1C99.1624 2.052 98.9784 2.028 98.7304 2.028C98.7064 2.028 98.6944 2.004 98.6944 1.956C98.6944 1.908 98.7064 1.884 98.7304 1.884L99.5104 1.896L100.098 1.884C100.194 1.884 100.254 1.9 100.278 1.932C100.302 1.956 100.314 2.016 100.314 2.112V6.504ZM99.9064 3.276C100.354 2.74 100.794 2.352 101.226 2.112C101.658 1.864 102.118 1.74 102.606 1.74C103.198 1.74 103.674 1.904 104.034 2.232C104.394 2.552 104.574 3.048 104.574 3.72V6.528C104.574 6.768 104.59 6.948 104.622 7.068C104.662 7.18 104.73 7.256 104.826 7.296C104.93 7.336 105.09 7.356 105.306 7.356C105.322 7.356 105.33 7.38 105.33 7.428C105.33 7.476 105.322 7.5 105.306 7.5C105.106 7.5 104.95 7.496 104.838 7.488L104.202 7.476L103.446 7.488C103.326 7.496 103.166 7.5 102.966 7.5C102.95 7.5 102.942 7.476 102.942 7.428C102.942 7.38 102.95 7.356 102.966 7.356C103.222 7.356 103.41 7.332 103.53 7.284C103.658 7.236 103.742 7.156 103.782 7.044C103.83 6.924 103.854 6.744 103.854 6.504V4.116C103.854 3.348 103.718 2.816 103.446 2.52C103.182 2.216 102.798 2.064 102.294 2.064C101.894 2.064 101.518 2.164 101.166 2.364C100.822 2.556 100.442 2.896 100.026 3.384L99.9064 3.276ZM106.839 2.856C106.839 3.2 106.955 3.48 107.187 3.696C107.419 3.904 107.767 4.124 108.231 4.356C108.559 4.524 108.819 4.676 109.011 4.812C109.211 4.948 109.379 5.116 109.515 5.316C109.651 5.516 109.719 5.756 109.719 6.036C109.719 6.332 109.635 6.604 109.467 6.852C109.307 7.092 109.075 7.284 108.771 7.428C108.467 7.572 108.111 7.644 107.703 7.644C107.135 7.644 106.655 7.504 106.263 7.224C106.223 7.208 106.195 7.184 106.179 7.152C106.171 7.12 106.163 7.068 106.155 6.996L106.035 5.808C106.027 5.776 106.043 5.756 106.083 5.748C106.131 5.74 106.163 5.752 106.179 5.784C106.291 6.248 106.511 6.644 106.839 6.972C107.175 7.292 107.547 7.452 107.955 7.452C108.235 7.452 108.475 7.372 108.675 7.212C108.883 7.044 108.987 6.788 108.987 6.444C108.987 6.076 108.867 5.776 108.627 5.544C108.387 5.312 108.039 5.076 107.583 4.836C107.263 4.66 107.007 4.508 106.815 4.38C106.631 4.244 106.475 4.08 106.347 3.888C106.219 3.696 106.155 3.464 106.155 3.192C106.155 2.736 106.331 2.38 106.683 2.124C107.035 1.868 107.463 1.74 107.967 1.74C108.375 1.74 108.775 1.832 109.167 2.016C109.239 2.056 109.283 2.088 109.299 2.112C109.323 2.136 109.339 2.172 109.347 2.22L109.419 3.264C109.419 3.296 109.395 3.316 109.347 3.324C109.307 3.332 109.283 3.32 109.275 3.288C109.235 3.088 109.143 2.884 108.999 2.676C108.863 2.46 108.687 2.28 108.471 2.136C108.255 1.992 108.015 1.92 107.751 1.92C107.463 1.92 107.239 2.008 107.079 2.184C106.919 2.36 106.839 2.584 106.839 2.856ZM115.474 2.88C115.474 2.64 115.454 2.464 115.414 2.352C115.374 2.232 115.294 2.148 115.174 2.1C115.054 2.052 114.866 2.028 114.61 2.028C114.594 2.028 114.586 2.004 114.586 1.956C114.586 1.908 114.594 1.884 114.61 1.884L115.138 1.896C115.442 1.912 115.686 1.92 115.87 1.92C116.038 1.92 116.274 1.912 116.578 1.896L117.106 1.884C117.122 1.884 117.13 1.908 117.13 1.956C117.13 2.004 117.122 2.028 117.106 2.028C116.842 2.028 116.646 2.052 116.518 2.1C116.398 2.14 116.314 2.216 116.266 2.328C116.218 2.44 116.194 2.616 116.194 2.856V6.528C116.194 6.768 116.214 6.948 116.254 7.068C116.302 7.18 116.386 7.256 116.506 7.296C116.626 7.336 116.814 7.356 117.07 7.356C117.094 7.356 117.106 7.38 117.106 7.428C117.106 7.476 117.094 7.5 117.07 7.5L116.29 7.488L115.702 7.5C115.606 7.5 115.542 7.488 115.51 7.464C115.486 7.44 115.474 7.376 115.474 7.272V2.88ZM115.894 6.12C115.446 6.648 115.002 7.036 114.562 7.284C114.13 7.524 113.674 7.644 113.194 7.644C112.626 7.644 112.154 7.496 111.778 7.2C111.41 6.896 111.226 6.48 111.226 5.952V2.856C111.226 2.616 111.206 2.44 111.166 2.328C111.134 2.216 111.066 2.14 110.962 2.1C110.866 2.052 110.71 2.028 110.494 2.028C110.478 2.028 110.47 2.004 110.47 1.956C110.47 1.908 110.478 1.884 110.494 1.884L110.962 1.896C111.234 1.912 111.442 1.92 111.586 1.92C111.786 1.92 112.038 1.912 112.342 1.896L112.834 1.884C112.85 1.884 112.858 1.908 112.858 1.956C112.858 2.004 112.85 2.028 112.834 2.028C112.578 2.028 112.386 2.052 112.258 2.1C112.138 2.148 112.054 2.232 112.006 2.352C111.966 2.464 111.946 2.64 111.946 2.88V5.544C111.946 6.728 112.47 7.32 113.518 7.32C113.918 7.32 114.294 7.22 114.646 7.02C114.998 6.82 115.374 6.484 115.774 6.012L115.894 6.12ZM125.544 7.5C125.528 7.5 125.52 7.476 125.52 7.428C125.52 7.38 125.528 7.356 125.544 7.356C125.808 7.356 126 7.336 126.12 7.296C126.248 7.256 126.332 7.18 126.372 7.068C126.42 6.948 126.444 6.768 126.444 6.528V3.96C126.444 3.32 126.336 2.844 126.12 2.532C125.904 2.22 125.576 2.064 125.136 2.064C124.76 2.064 124.4 2.172 124.056 2.388C123.712 2.604 123.4 2.916 123.12 3.324L123.024 3.18C123.432 2.668 123.832 2.3 124.224 2.076C124.616 1.844 125.028 1.728 125.46 1.728C125.996 1.728 126.412 1.888 126.708 2.208C127.004 2.52 127.152 2.984 127.152 3.6V6.528C127.152 6.776 127.172 6.956 127.212 7.068C127.26 7.18 127.344 7.256 127.464 7.296C127.584 7.336 127.78 7.356 128.052 7.356C128.068 7.356 128.076 7.38 128.076 7.428C128.076 7.476 128.068 7.5 128.052 7.5C127.836 7.5 127.668 7.496 127.548 7.488L126.792 7.476L126.06 7.488C125.932 7.496 125.76 7.5 125.544 7.5ZM121.764 7.5C121.748 7.5 121.74 7.476 121.74 7.428C121.74 7.38 121.748 7.356 121.764 7.356C122.028 7.356 122.22 7.336 122.34 7.296C122.468 7.256 122.552 7.18 122.592 7.068C122.64 6.948 122.664 6.768 122.664 6.528V3.96C122.664 3.32 122.556 2.844 122.34 2.532C122.124 2.22 121.796 2.064 121.356 2.064C120.98 2.064 120.62 2.172 120.276 2.388C119.932 2.596 119.616 2.908 119.328 3.324L119.244 3.18C119.652 2.676 120.052 2.308 120.444 2.076C120.836 1.844 121.248 1.728 121.68 1.728C122.216 1.728 122.632 1.888 122.928 2.208C123.224 2.52 123.372 2.984 123.372 3.6V6.528C123.372 6.768 123.392 6.948 123.432 7.068C123.48 7.18 123.564 7.256 123.684 7.296C123.804 7.336 123.996 7.356 124.26 7.356C124.284 7.356 124.296 7.38 124.296 7.428C124.296 7.476 124.284 7.5 124.26 7.5C124.052 7.5 123.888 7.496 123.768 7.488L123 7.476L122.268 7.488C122.148 7.496 121.98 7.5 121.764 7.5ZM117.984 7.5C117.96 7.5 117.948 7.476 117.948 7.428C117.948 7.38 117.96 7.356 117.984 7.356C118.24 7.356 118.428 7.336 118.548 7.296C118.668 7.256 118.748 7.18 118.788 7.068C118.836 6.948 118.86 6.768 118.86 6.528V2.856C118.86 2.616 118.836 2.44 118.788 2.328C118.748 2.216 118.664 2.14 118.536 2.1C118.408 2.052 118.212 2.028 117.948 2.028C117.932 2.028 117.924 2.004 117.924 1.956C117.924 1.908 117.932 1.884 117.948 1.884L118.824 1.896L119.352 1.884C119.456 1.884 119.52 1.9 119.544 1.932C119.568 1.956 119.58 2.016 119.58 2.112V6.528C119.58 6.776 119.6 6.956 119.64 7.068C119.688 7.18 119.772 7.256 119.892 7.296C120.012 7.336 120.208 7.356 120.48 7.356C120.496 7.356 120.504 7.38 120.504 7.428C120.504 7.476 120.496 7.5 120.48 7.5C120.264 7.5 120.096 7.496 119.976 7.488L119.208 7.476L118.488 7.488C118.36 7.496 118.192 7.5 117.984 7.5ZM130.221 6.48C130.221 6.736 130.249 6.924 130.305 7.044C130.361 7.156 130.469 7.236 130.629 7.284C130.797 7.332 131.057 7.356 131.409 7.356C131.433 7.356 131.445 7.38 131.445 7.428C131.445 7.476 131.433 7.5 131.409 7.5C131.121 7.5 130.901 7.496 130.749 7.488L129.861 7.476L129.153 7.488C129.017 7.496 128.833 7.5 128.601 7.5C128.585 7.5 128.577 7.476 128.577 7.428C128.577 7.38 128.585 7.356 128.601 7.356C128.865 7.356 129.057 7.336 129.177 7.296C129.297 7.256 129.377 7.18 129.417 7.068C129.465 6.948 129.489 6.768 129.489 6.528V2.856C129.489 2.616 129.465 2.44 129.417 2.328C129.377 2.216 129.293 2.14 129.165 2.1C129.045 2.052 128.857 2.028 128.601 2.028C128.585 2.028 128.577 2.004 128.577 1.956C128.577 1.908 128.585 1.884 128.601 1.884L129.141 1.896C129.445 1.912 129.681 1.92 129.849 1.92C129.985 1.92 130.113 1.916 130.233 1.908C130.361 1.9 130.469 1.892 130.557 1.884C130.813 1.86 131.045 1.848 131.253 1.848C132.573 1.848 133.233 2.336 133.233 3.312C133.233 3.696 133.133 4.02 132.933 4.284C132.741 4.54 132.493 4.732 132.189 4.86C131.893 4.988 131.585 5.052 131.265 5.052C131.049 5.052 130.873 5.036 130.737 5.004C130.713 5.004 130.701 4.984 130.701 4.944C130.701 4.88 130.725 4.848 130.773 4.848C130.893 4.872 131.017 4.884 131.145 4.884C131.497 4.884 131.793 4.772 132.033 4.548C132.281 4.316 132.405 3.984 132.405 3.552C132.405 3.048 132.273 2.668 132.009 2.412C131.753 2.148 131.405 2.016 130.965 2.016C130.757 2.016 130.605 2.032 130.509 2.064C130.413 2.096 130.341 2.172 130.293 2.292C130.245 2.412 130.221 2.608 130.221 2.88V6.48ZM136.412 7.644C135.956 7.644 135.576 7.516 135.272 7.26C134.976 7.004 134.828 6.58 134.828 5.988V2.844C134.828 2.644 134.812 2.504 134.78 2.424C134.756 2.336 134.7 2.28 134.612 2.256C134.532 2.224 134.396 2.208 134.204 2.208C134.18 2.208 134.168 2.184 134.168 2.136C134.168 2.08 134.18 2.052 134.204 2.052C134.524 2.052 134.792 1.968 135.008 1.8C135.232 1.632 135.352 1.416 135.368 1.152C135.368 1.128 135.396 1.116 135.452 1.116C135.484 1.116 135.504 1.196 135.512 1.356C135.528 1.516 135.536 1.964 135.536 2.7C135.544 3.428 135.548 4.396 135.548 5.604C135.548 6.164 135.656 6.58 135.872 6.852C136.088 7.116 136.416 7.248 136.856 7.248C137.28 7.248 137.652 7.14 137.972 6.924L137.996 6.912C138.02 6.912 138.04 6.932 138.056 6.972C138.072 7.004 138.068 7.028 138.044 7.044C137.716 7.26 137.428 7.412 137.18 7.5C136.94 7.596 136.684 7.644 136.412 7.644ZM137.684 2.52C136.988 2.336 136.212 2.244 135.356 2.244V2.028C135.908 2.028 136.696 1.992 137.72 1.92C137.744 1.92 137.764 1.944 137.78 1.992C137.796 2.04 137.804 2.104 137.804 2.184C137.804 2.256 137.788 2.332 137.756 2.412C137.732 2.492 137.708 2.528 137.684 2.52ZM140.36 6.528C140.36 6.776 140.38 6.956 140.42 7.068C140.468 7.18 140.552 7.256 140.672 7.296C140.792 7.336 140.988 7.356 141.26 7.356C141.276 7.356 141.284 7.38 141.284 7.428C141.284 7.476 141.276 7.5 141.26 7.5C141.036 7.5 140.86 7.496 140.732 7.488L139.976 7.476L139.268 7.488C139.132 7.496 138.948 7.5 138.716 7.5C138.7 7.5 138.692 7.476 138.692 7.428C138.692 7.38 138.7 7.356 138.716 7.356C138.988 7.356 139.184 7.336 139.304 7.296C139.424 7.256 139.504 7.18 139.544 7.068C139.592 6.956 139.616 6.776 139.616 6.528V2.856C139.616 2.616 139.592 2.44 139.544 2.328C139.504 2.216 139.42 2.14 139.292 2.1C139.172 2.052 138.98 2.028 138.716 2.028C138.7 2.028 138.692 2.004 138.692 1.956C138.692 1.908 138.7 1.884 138.716 1.884L139.268 1.896C139.556 1.912 139.792 1.92 139.976 1.92C140.184 1.92 140.44 1.912 140.744 1.896L141.26 1.884C141.276 1.884 141.284 1.908 141.284 1.956C141.284 2.004 141.276 2.028 141.26 2.028C141.004 2.028 140.812 2.052 140.684 2.1C140.556 2.148 140.468 2.232 140.42 2.352C140.38 2.464 140.36 2.64 140.36 2.88V6.528ZM145.039 7.644C144.479 7.644 143.979 7.512 143.539 7.248C143.107 6.984 142.771 6.628 142.531 6.18C142.291 5.732 142.171 5.248 142.171 4.728C142.171 4.104 142.331 3.568 142.651 3.12C142.979 2.664 143.391 2.32 143.887 2.088C144.391 1.856 144.903 1.74 145.423 1.74C145.983 1.74 146.475 1.88 146.899 2.16C147.331 2.432 147.659 2.788 147.883 3.228C148.115 3.668 148.231 4.128 148.231 4.608C148.231 5.144 148.087 5.648 147.799 6.12C147.511 6.584 147.123 6.956 146.635 7.236C146.147 7.508 145.615 7.644 145.039 7.644ZM145.351 7.392C145.975 7.392 146.471 7.172 146.839 6.732C147.215 6.292 147.403 5.684 147.403 4.908C147.403 4.372 147.307 3.884 147.115 3.444C146.931 3.004 146.659 2.652 146.299 2.388C145.939 2.124 145.511 1.992 145.015 1.992C144.375 1.992 143.879 2.208 143.527 2.64C143.175 3.064 142.999 3.66 142.999 4.428C142.999 4.98 143.091 5.48 143.275 5.928C143.467 6.376 143.739 6.732 144.091 6.996C144.451 7.26 144.871 7.392 145.351 7.392ZM150.705 6.504C150.705 6.744 150.725 6.924 150.765 7.044C150.813 7.156 150.897 7.236 151.017 7.284C151.137 7.332 151.321 7.356 151.569 7.356C151.593 7.356 151.605 7.38 151.605 7.428C151.605 7.476 151.593 7.5 151.569 7.5C151.353 7.5 151.181 7.496 151.053 7.488L150.321 7.476L149.613 7.488C149.485 7.496 149.309 7.5 149.085 7.5C149.069 7.5 149.061 7.476 149.061 7.428C149.061 7.38 149.069 7.356 149.085 7.356C149.341 7.356 149.529 7.336 149.649 7.296C149.777 7.248 149.865 7.168 149.913 7.056C149.961 6.944 149.985 6.768 149.985 6.528V2.856C149.985 2.616 149.961 2.44 149.913 2.328C149.873 2.216 149.793 2.14 149.673 2.1C149.553 2.052 149.369 2.028 149.121 2.028C149.097 2.028 149.085 2.004 149.085 1.956C149.085 1.908 149.097 1.884 149.121 1.884L149.901 1.896L150.489 1.884C150.585 1.884 150.645 1.9 150.669 1.932C150.693 1.956 150.705 2.016 150.705 2.112V6.504ZM150.297 3.276C150.745 2.74 151.185 2.352 151.617 2.112C152.049 1.864 152.509 1.74 152.997 1.74C153.589 1.74 154.065 1.904 154.425 2.232C154.785 2.552 154.965 3.048 154.965 3.72V6.528C154.965 6.768 154.981 6.948 155.013 7.068C155.053 7.18 155.121 7.256 155.217 7.296C155.321 7.336 155.481 7.356 155.697 7.356C155.713 7.356 155.721 7.38 155.721 7.428C155.721 7.476 155.713 7.5 155.697 7.5C155.497 7.5 155.341 7.496 155.229 7.488L154.593 7.476L153.837 7.488C153.717 7.496 153.557 7.5 153.357 7.5C153.341 7.5 153.333 7.476 153.333 7.428C153.333 7.38 153.341 7.356 153.357 7.356C153.613 7.356 153.801 7.332 153.921 7.284C154.049 7.236 154.133 7.156 154.173 7.044C154.221 6.924 154.245 6.744 154.245 6.504V4.116C154.245 3.348 154.109 2.816 153.837 2.52C153.573 2.216 153.189 2.064 152.685 2.064C152.285 2.064 151.909 2.164 151.557 2.364C151.213 2.556 150.833 2.896 150.417 3.384L150.297 3.276Z" fill="black"/>
</svg>
