<svg width="88" height="10" viewBox="0 0 88 10" fill="none" xmlns="http://www.w3.org/2000/svg">
<path d="M0.0300098 9.375C0.0100098 9.375 9.78261e-06 9.345 9.78261e-06 9.285C9.78261e-06 9.225 0.0100098 9.195 0.0300098 9.195C0.41001 9.195 0.68501 9.17 0.85501 9.12C1.03501 9.07 1.15501 8.975 1.21501 8.835C1.28501 8.685 1.32001 8.46 1.32001 8.16V1.215C1.32001 0.915 1.28501 0.695 1.21501 0.555C1.15501 0.414999 1.03501 0.319999 0.85501 0.269999C0.68501 0.209999 0.41001 0.179999 0.0300098 0.179999C0.0100098 0.179999 9.78261e-06 0.15 9.78261e-06 0.0899997C9.78261e-06 0.0299999 0.0100098 0 0.0300098 0H6.06001C6.15001 0 6.19501 0.0449997 6.19501 0.134999L6.22501 1.98C6.22501 2.01 6.19501 2.03 6.13501 2.04C6.08501 2.04 6.06001 2.025 6.06001 1.995C6.03001 1.465 5.87001 1.055 5.58001 0.765C5.29001 0.465 4.90501 0.315 4.42501 0.315H3.51001C3.16001 0.315 2.90001 0.344999 2.73001 0.404999C2.56001 0.454999 2.44001 0.544999 2.37001 0.674999C2.31001 0.804999 2.28001 1.01 2.28001 1.29V8.1C2.28001 8.37 2.31001 8.575 2.37001 8.715C2.44001 8.845 2.55501 8.935 2.71501 8.985C2.87501 9.035 3.12501 9.06 3.46501 9.06H4.66501C5.14501 9.06 5.54501 8.89 5.86501 8.55C6.18501 8.21 6.40001 7.74 6.51001 7.14C6.51001 7.12 6.53001 7.11 6.57001 7.11C6.60001 7.11 6.62501 7.12 6.64501 7.14C6.67501 7.15 6.69001 7.16 6.69001 7.17C6.60001 7.8 6.55501 8.46 6.55501 9.15C6.55501 9.23 6.53501 9.29 6.49501 9.33C6.46501 9.36 6.40501 9.375 6.31501 9.375H0.0300098ZM5.47501 5.88C5.47501 5.44 5.36501 5.125 5.14501 4.935C4.93501 4.745 4.58001 4.65 4.08001 4.65H1.83001V4.335H4.12501C4.60501 4.335 4.94501 4.255 5.14501 4.095C5.35501 3.935 5.46001 3.665 5.46001 3.285C5.46001 3.265 5.49001 3.255 5.55001 3.255C5.61001 3.255 5.64001 3.265 5.64001 3.285L5.62501 4.5C5.62501 4.79 5.63001 5.01 5.64001 5.16L5.65501 5.88C5.65501 5.9 5.62501 5.91 5.56501 5.91C5.50501 5.91 5.47501 5.9 5.47501 5.88ZM13.0217 9.465C12.9817 9.485 12.9467 9.495 12.9167 9.495C12.7367 9.495 12.5617 9.375 12.3917 9.135C12.2317 8.885 12.1517 8.55 12.1517 8.13V4.32C12.1517 3.71 12.0617 3.265 11.8817 2.985C11.7117 2.705 11.4367 2.565 11.0567 2.565C10.5967 2.565 10.2567 2.71 10.0367 3C9.82665 3.28 9.66165 3.65 9.54165 4.11C9.49165 4.28 9.42165 4.42 9.33165 4.53C9.25165 4.63 9.12665 4.68 8.95665 4.68C8.79665 4.68 8.66665 4.635 8.56665 4.545C8.46665 4.445 8.41665 4.325 8.41665 4.185C8.41665 3.935 8.59165 3.655 8.94165 3.345C9.30165 3.035 9.73665 2.77 10.2467 2.55C10.7567 2.33 11.2167 2.22 11.6267 2.22C12.0567 2.22 12.4017 2.36 12.6617 2.64C12.9217 2.91 13.0517 3.32 13.0517 3.87V7.62C13.0517 8.37 13.2967 8.745 13.7867 8.745C13.9867 8.745 14.2317 8.68 14.5217 8.55H14.5517C14.5917 8.55 14.6167 8.575 14.6267 8.625C14.6467 8.665 14.6367 8.695 14.5967 8.715L13.0217 9.465ZM9.64665 9.48C9.29665 9.48 9.00165 9.375 8.76165 9.165C8.52165 8.955 8.40165 8.715 8.40165 8.445C8.40165 8.065 8.52665 7.76 8.77665 7.53C9.02665 7.3 9.49165 7.06 10.1717 6.81L12.3167 6.03L12.3467 6.21L10.4867 6.93C10.1167 7.07 9.85665 7.23 9.70665 7.41C9.55665 7.59 9.48165 7.805 9.48165 8.055C9.48165 8.295 9.56165 8.505 9.72165 8.685C9.89165 8.855 10.0867 8.94 10.3067 8.94C10.5467 8.94 10.8117 8.865 11.1017 8.715L12.4517 8.025L12.4817 8.22L11.1617 8.955C10.8117 9.145 10.5217 9.28 10.2917 9.36C10.0617 9.44 9.84665 9.48 9.64665 9.48ZM17.9647 9.555C17.3947 9.555 16.9197 9.395 16.5397 9.075C16.1697 8.755 15.9847 8.225 15.9847 7.485V3.555C15.9847 3.305 15.9647 3.13 15.9247 3.03C15.8947 2.92 15.8247 2.85 15.7147 2.82C15.6147 2.78 15.4447 2.76 15.2047 2.76C15.1747 2.76 15.1597 2.73 15.1597 2.67C15.1597 2.6 15.1747 2.565 15.2047 2.565C15.6047 2.565 15.9397 2.46 16.2097 2.25C16.4897 2.04 16.6397 1.77 16.6597 1.44C16.6597 1.41 16.6947 1.395 16.7647 1.395C16.8047 1.395 16.8297 1.495 16.8397 1.695C16.8597 1.895 16.8697 2.455 16.8697 3.375C16.8797 4.285 16.8847 5.495 16.8847 7.005C16.8847 7.705 17.0197 8.225 17.2897 8.565C17.5597 8.895 17.9697 9.06 18.5197 9.06C19.0497 9.06 19.5147 8.925 19.9147 8.655L19.9447 8.64C19.9747 8.64 19.9997 8.665 20.0197 8.715C20.0397 8.755 20.0347 8.785 20.0047 8.805C19.5947 9.075 19.2347 9.265 18.9247 9.375C18.6247 9.495 18.3047 9.555 17.9647 9.555ZM19.5547 3.15C18.6847 2.92 17.7147 2.805 16.6447 2.805V2.535C17.3347 2.535 18.3197 2.49 19.5997 2.4C19.6297 2.4 19.6547 2.43 19.6747 2.49C19.6947 2.55 19.7047 2.63 19.7047 2.73C19.7047 2.82 19.6847 2.915 19.6447 3.015C19.6147 3.115 19.5847 3.16 19.5547 3.15ZM30.4204 3.6C30.4204 3.3 30.3954 3.08 30.3454 2.94C30.2954 2.79 30.1954 2.685 30.0454 2.625C29.8954 2.565 29.6604 2.535 29.3404 2.535C29.3204 2.535 29.3104 2.505 29.3104 2.445C29.3104 2.385 29.3204 2.355 29.3404 2.355L30.0004 2.37C30.3804 2.39 30.6854 2.4 30.9154 2.4C31.1254 2.4 31.4204 2.39 31.8004 2.37L32.4604 2.355C32.4804 2.355 32.4904 2.385 32.4904 2.445C32.4904 2.505 32.4804 2.535 32.4604 2.535C32.1304 2.535 31.8854 2.565 31.7254 2.625C31.5754 2.675 31.4704 2.77 31.4104 2.91C31.3504 3.05 31.3204 3.27 31.3204 3.57V8.16C31.3204 8.46 31.3454 8.685 31.3954 8.835C31.4554 8.975 31.5604 9.07 31.7104 9.12C31.8604 9.17 32.0954 9.195 32.4154 9.195C32.4454 9.195 32.4604 9.225 32.4604 9.285C32.4604 9.345 32.4454 9.375 32.4154 9.375L31.4404 9.36L30.7054 9.375C30.5854 9.375 30.5054 9.36 30.4654 9.33C30.4354 9.3 30.4204 9.22 30.4204 9.09V3.6ZM30.9454 7.65C30.3854 8.31 29.8304 8.795 29.2804 9.105C28.7404 9.405 28.1704 9.555 27.5704 9.555C26.8604 9.555 26.2704 9.37 25.8004 9C25.3404 8.62 25.1104 8.1 25.1104 7.44V3.57C25.1104 3.27 25.0854 3.05 25.0354 2.91C24.9954 2.77 24.9104 2.675 24.7804 2.625C24.6604 2.565 24.4654 2.535 24.1954 2.535C24.1754 2.535 24.1654 2.505 24.1654 2.445C24.1654 2.385 24.1754 2.355 24.1954 2.355L24.7804 2.37C25.1204 2.39 25.3804 2.4 25.5604 2.4C25.8104 2.4 26.1254 2.39 26.5054 2.37L27.1204 2.355C27.1404 2.355 27.1504 2.385 27.1504 2.445C27.1504 2.505 27.1404 2.535 27.1204 2.535C26.8004 2.535 26.5604 2.565 26.4004 2.625C26.2504 2.685 26.1454 2.79 26.0854 2.94C26.0354 3.08 26.0104 3.3 26.0104 3.6V6.93C26.0104 8.41 26.6654 9.15 27.9754 9.15C28.4754 9.15 28.9454 9.025 29.3854 8.775C29.8254 8.525 30.2954 8.105 30.7954 7.515L30.9454 7.65ZM35.5385 8.1C35.5385 8.42 35.5735 8.655 35.6435 8.805C35.7135 8.945 35.8485 9.045 36.0485 9.105C36.2585 9.165 36.5835 9.195 37.0235 9.195C37.0535 9.195 37.0685 9.225 37.0685 9.285C37.0685 9.345 37.0535 9.375 37.0235 9.375C36.6635 9.375 36.3885 9.37 36.1985 9.36L35.0885 9.345L34.2035 9.36C34.0335 9.37 33.8035 9.375 33.5135 9.375C33.4935 9.375 33.4835 9.345 33.4835 9.285C33.4835 9.225 33.4935 9.195 33.5135 9.195C33.8435 9.195 34.0835 9.17 34.2335 9.12C34.3835 9.07 34.4835 8.975 34.5335 8.835C34.5935 8.685 34.6235 8.46 34.6235 8.16V3.57C34.6235 3.27 34.5935 3.05 34.5335 2.91C34.4835 2.77 34.3785 2.675 34.2185 2.625C34.0685 2.565 33.8335 2.535 33.5135 2.535C33.4935 2.535 33.4835 2.505 33.4835 2.445C33.4835 2.385 33.4935 2.355 33.5135 2.355L34.1885 2.37C34.5685 2.39 34.8635 2.4 35.0735 2.4C35.2435 2.4 35.4035 2.395 35.5535 2.385C35.7135 2.375 35.8485 2.365 35.9585 2.355C36.2785 2.325 36.5685 2.31 36.8285 2.31C38.4785 2.31 39.3035 2.92 39.3035 4.14C39.3035 4.62 39.1785 5.025 38.9285 5.355C38.6885 5.675 38.3785 5.915 37.9985 6.075C37.6285 6.235 37.2435 6.315 36.8435 6.315C36.5735 6.315 36.3535 6.295 36.1835 6.255C36.1535 6.255 36.1385 6.23 36.1385 6.18C36.1385 6.1 36.1685 6.06 36.2285 6.06C36.3785 6.09 36.5335 6.105 36.6935 6.105C37.1335 6.105 37.5035 5.965 37.8035 5.685C38.1135 5.395 38.2685 4.98 38.2685 4.44C38.2685 3.81 38.1035 3.335 37.7735 3.015C37.4535 2.685 37.0185 2.52 36.4685 2.52C36.2085 2.52 36.0185 2.54 35.8985 2.58C35.7785 2.62 35.6885 2.715 35.6285 2.865C35.5685 3.015 35.5385 3.26 35.5385 3.6V8.1ZM45.9829 8.1C45.9829 8.42 46.0179 8.655 46.0879 8.805C46.1579 8.945 46.2929 9.045 46.4929 9.105C46.7029 9.165 47.0279 9.195 47.4679 9.195C47.4979 9.195 47.5129 9.225 47.5129 9.285C47.5129 9.345 47.4979 9.375 47.4679 9.375C47.1079 9.375 46.8329 9.37 46.6429 9.36L45.5329 9.345L44.6479 9.36C44.4779 9.37 44.2479 9.375 43.9579 9.375C43.9379 9.375 43.9279 9.345 43.9279 9.285C43.9279 9.225 43.9379 9.195 43.9579 9.195C44.2879 9.195 44.5279 9.17 44.6779 9.12C44.8279 9.07 44.9279 8.975 44.9779 8.835C45.0379 8.685 45.0679 8.46 45.0679 8.16V3.57C45.0679 3.27 45.0379 3.05 44.9779 2.91C44.9279 2.77 44.8229 2.675 44.6629 2.625C44.5129 2.565 44.2779 2.535 43.9579 2.535C43.9379 2.535 43.9279 2.505 43.9279 2.445C43.9279 2.385 43.9379 2.355 43.9579 2.355L44.6329 2.37C45.0129 2.39 45.3079 2.4 45.5179 2.4C45.6879 2.4 45.8479 2.395 45.9979 2.385C46.1579 2.375 46.2929 2.365 46.4029 2.355C46.7229 2.325 47.0129 2.31 47.2729 2.31C48.9229 2.31 49.7479 2.92 49.7479 4.14C49.7479 4.62 49.6229 5.025 49.3729 5.355C49.1329 5.675 48.8229 5.915 48.4429 6.075C48.0729 6.235 47.6879 6.315 47.2879 6.315C47.0179 6.315 46.7979 6.295 46.6279 6.255C46.5979 6.255 46.5829 6.23 46.5829 6.18C46.5829 6.1 46.6129 6.06 46.6729 6.06C46.8229 6.09 46.9779 6.105 47.1379 6.105C47.5779 6.105 47.9479 5.965 48.2479 5.685C48.5579 5.395 48.7129 4.98 48.7129 4.44C48.7129 3.81 48.5479 3.335 48.2179 3.015C47.8979 2.685 47.4629 2.52 46.9129 2.52C46.6529 2.52 46.4629 2.54 46.3429 2.58C46.2229 2.62 46.1329 2.715 46.0729 2.865C46.0129 3.015 45.9829 3.26 45.9829 3.6V8.1ZM53.0316 8.16C53.0316 8.47 53.0566 8.695 53.1066 8.835C53.1666 8.975 53.2716 9.07 53.4216 9.12C53.5716 9.17 53.8166 9.195 54.1566 9.195C54.1766 9.195 54.1866 9.225 54.1866 9.285C54.1866 9.345 54.1766 9.375 54.1566 9.375C53.8766 9.375 53.6566 9.37 53.4966 9.36L52.5516 9.345L51.6666 9.36C51.4966 9.37 51.2666 9.375 50.9766 9.375C50.9566 9.375 50.9466 9.345 50.9466 9.285C50.9466 9.225 50.9566 9.195 50.9766 9.195C51.3166 9.195 51.5616 9.17 51.7116 9.12C51.8616 9.07 51.9616 8.975 52.0116 8.835C52.0716 8.695 52.1016 8.47 52.1016 8.16V3.57C52.1016 3.27 52.0716 3.05 52.0116 2.91C51.9616 2.77 51.8566 2.675 51.6966 2.625C51.5466 2.565 51.3066 2.535 50.9766 2.535C50.9566 2.535 50.9466 2.505 50.9466 2.445C50.9466 2.385 50.9566 2.355 50.9766 2.355L51.6666 2.37C52.0266 2.39 52.3216 2.4 52.5516 2.4C52.8116 2.4 53.1316 2.39 53.5116 2.37L54.1566 2.355C54.1766 2.355 54.1866 2.385 54.1866 2.445C54.1866 2.505 54.1766 2.535 54.1566 2.535C53.8366 2.535 53.5966 2.565 53.4366 2.625C53.2766 2.685 53.1666 2.79 53.1066 2.94C53.0566 3.08 53.0316 3.3 53.0316 3.6V8.16ZM59.2111 9.555C58.4111 9.555 57.7111 9.39 57.1111 9.06C56.5211 8.72 56.0711 8.275 55.7611 7.725C55.4511 7.175 55.2961 6.595 55.2961 5.985C55.2961 5.205 55.4711 4.53 55.8211 3.96C56.1711 3.38 56.6711 2.94 57.3211 2.64C57.9711 2.33 58.7361 2.175 59.6161 2.175C60.0361 2.175 60.4361 2.215 60.8161 2.295C61.1961 2.375 61.5161 2.49 61.7761 2.64C61.8361 2.67 61.8711 2.71 61.8811 2.76C61.9011 2.81 61.9161 2.88 61.9261 2.97L62.0761 4.38C62.0761 4.41 62.0461 4.43 61.9861 4.44C61.9361 4.44 61.9061 4.425 61.8961 4.395C61.6761 3.705 61.3461 3.2 60.9061 2.88C60.4661 2.56 59.9161 2.4 59.2561 2.4C58.3761 2.4 57.6711 2.705 57.1411 3.315C56.6111 3.915 56.3461 4.74 56.3461 5.79C56.3461 6.48 56.4761 7.095 56.7361 7.635C57.0061 8.165 57.3811 8.58 57.8611 8.88C58.3511 9.18 58.9211 9.33 59.5711 9.33C60.0711 9.33 60.4361 9.285 60.6661 9.195C60.9061 9.105 61.0661 8.935 61.1461 8.685C61.2361 8.425 61.2811 8.025 61.2811 7.485C61.2811 7.225 61.2511 7.045 61.1911 6.945C61.1411 6.835 61.0261 6.765 60.8461 6.735C60.6761 6.695 60.3711 6.675 59.9311 6.675C59.8711 6.675 59.8411 6.635 59.8411 6.555C59.8411 6.525 59.8461 6.5 59.8561 6.48C59.8761 6.45 59.8961 6.435 59.9161 6.435C60.4361 6.475 60.9611 6.495 61.4911 6.495C61.7311 6.495 62.1311 6.485 62.6911 6.465C62.7111 6.465 62.7261 6.48 62.7361 6.51C62.7561 6.53 62.7661 6.55 62.7661 6.57C62.7661 6.64 62.7411 6.675 62.6911 6.675C62.4911 6.665 62.3511 6.68 62.2711 6.72C62.1911 6.76 62.1411 6.845 62.1211 6.975C62.1011 7.095 62.0911 7.315 62.0911 7.635C62.0911 8.085 62.1011 8.4 62.1211 8.58C62.1411 8.76 62.1511 8.885 62.1511 8.955C62.1511 9.015 62.1411 9.055 62.1211 9.075C62.1111 9.085 62.0661 9.105 61.9861 9.135C61.3261 9.415 60.4011 9.555 59.2111 9.555ZM67.5607 9.555C66.7607 9.555 66.0607 9.39 65.4607 9.06C64.8707 8.72 64.4207 8.275 64.1107 7.725C63.8007 7.175 63.6457 6.595 63.6457 5.985C63.6457 5.205 63.8207 4.53 64.1707 3.96C64.5207 3.38 65.0207 2.94 65.6707 2.64C66.3207 2.33 67.0857 2.175 67.9657 2.175C68.3857 2.175 68.7857 2.215 69.1657 2.295C69.5457 2.375 69.8657 2.49 70.1257 2.64C70.1857 2.67 70.2207 2.71 70.2307 2.76C70.2507 2.81 70.2657 2.88 70.2757 2.97L70.4257 4.38C70.4257 4.41 70.3957 4.43 70.3357 4.44C70.2857 4.44 70.2557 4.425 70.2457 4.395C70.0257 3.705 69.6957 3.2 69.2557 2.88C68.8157 2.56 68.2657 2.4 67.6057 2.4C66.7257 2.4 66.0207 2.705 65.4907 3.315C64.9607 3.915 64.6957 4.74 64.6957 5.79C64.6957 6.48 64.8257 7.095 65.0857 7.635C65.3557 8.165 65.7307 8.58 66.2107 8.88C66.7007 9.18 67.2707 9.33 67.9207 9.33C68.4207 9.33 68.7857 9.285 69.0157 9.195C69.2557 9.105 69.4157 8.935 69.4957 8.685C69.5857 8.425 69.6307 8.025 69.6307 7.485C69.6307 7.225 69.6007 7.045 69.5407 6.945C69.4907 6.835 69.3757 6.765 69.1957 6.735C69.0257 6.695 68.7207 6.675 68.2807 6.675C68.2207 6.675 68.1907 6.635 68.1907 6.555C68.1907 6.525 68.1957 6.5 68.2057 6.48C68.2257 6.45 68.2457 6.435 68.2657 6.435C68.7857 6.475 69.3107 6.495 69.8407 6.495C70.0807 6.495 70.4807 6.485 71.0407 6.465C71.0607 6.465 71.0757 6.48 71.0857 6.51C71.1057 6.53 71.1157 6.55 71.1157 6.57C71.1157 6.64 71.0907 6.675 71.0407 6.675C70.8407 6.665 70.7007 6.68 70.6207 6.72C70.5407 6.76 70.4907 6.845 70.4707 6.975C70.4507 7.095 70.4407 7.315 70.4407 7.635C70.4407 8.085 70.4507 8.4 70.4707 8.58C70.4907 8.76 70.5007 8.885 70.5007 8.955C70.5007 9.015 70.4907 9.055 70.4707 9.075C70.4607 9.085 70.4157 9.105 70.3357 9.135C69.6757 9.415 68.7507 9.555 67.5607 9.555ZM74.1253 8.16C74.1253 8.47 74.1503 8.695 74.2003 8.835C74.2603 8.975 74.3653 9.07 74.5153 9.12C74.6653 9.17 74.9103 9.195 75.2503 9.195C75.2703 9.195 75.2803 9.225 75.2803 9.285C75.2803 9.345 75.2703 9.375 75.2503 9.375C74.9703 9.375 74.7503 9.37 74.5903 9.36L73.6453 9.345L72.7603 9.36C72.5903 9.37 72.3603 9.375 72.0703 9.375C72.0503 9.375 72.0403 9.345 72.0403 9.285C72.0403 9.225 72.0503 9.195 72.0703 9.195C72.4103 9.195 72.6553 9.17 72.8053 9.12C72.9553 9.07 73.0553 8.975 73.1053 8.835C73.1653 8.695 73.1953 8.47 73.1953 8.16V3.57C73.1953 3.27 73.1653 3.05 73.1053 2.91C73.0553 2.77 72.9503 2.675 72.7903 2.625C72.6403 2.565 72.4003 2.535 72.0703 2.535C72.0503 2.535 72.0403 2.505 72.0403 2.445C72.0403 2.385 72.0503 2.355 72.0703 2.355L72.7603 2.37C73.1203 2.39 73.4153 2.4 73.6453 2.4C73.9053 2.4 74.2253 2.39 74.6053 2.37L75.2503 2.355C75.2703 2.355 75.2803 2.385 75.2803 2.445C75.2803 2.505 75.2703 2.535 75.2503 2.535C74.9303 2.535 74.6903 2.565 74.5303 2.625C74.3703 2.685 74.2603 2.79 74.2003 2.94C74.1503 3.08 74.1253 3.3 74.1253 3.6V8.16ZM79.7349 9.555C79.0249 9.555 78.4149 9.39 77.9049 9.06C77.4049 8.72 77.0249 8.28 76.7649 7.74C76.5149 7.2 76.3899 6.62 76.3899 6C76.3899 5.31 76.5549 4.675 76.8849 4.095C77.2149 3.505 77.6549 3.04 78.2049 2.7C78.7549 2.36 79.3549 2.19 80.0049 2.19C80.6749 2.19 81.1799 2.375 81.5199 2.745C81.8599 3.115 82.0299 3.615 82.0299 4.245C82.0299 4.345 82.0149 4.42 81.9849 4.47C81.9649 4.51 81.9199 4.53 81.8499 4.53H80.9649C80.9749 4.45 80.9799 4.34 80.9799 4.2C80.9799 3.65 80.8599 3.23 80.6199 2.94C80.3799 2.64 80.0199 2.49 79.5399 2.49C79.1299 2.49 78.7599 2.61 78.4299 2.85C78.0999 3.09 77.8399 3.435 77.6499 3.885C77.4699 4.335 77.3799 4.865 77.3799 5.475C77.3799 6.155 77.4949 6.77 77.7249 7.32C77.9549 7.86 78.2899 8.285 78.7299 8.595C79.1699 8.905 79.6849 9.06 80.2749 9.06C80.5649 9.06 80.8599 9.02 81.1599 8.94C81.4599 8.86 81.7249 8.735 81.9549 8.565H81.9699C81.9999 8.565 82.0249 8.585 82.0449 8.625C82.0749 8.655 82.0799 8.685 82.0599 8.715C81.3499 9.275 80.5749 9.555 79.7349 9.555ZM77.0649 4.335L81.2499 4.26V4.53L77.0799 4.545L77.0649 4.335ZM84.1967 3.57C84.1967 4 84.3417 4.35 84.6317 4.62C84.9217 4.88 85.3567 5.155 85.9367 5.445C86.3467 5.655 86.6717 5.845 86.9117 6.015C87.1617 6.185 87.3717 6.395 87.5417 6.645C87.7117 6.895 87.7967 7.195 87.7967 7.545C87.7967 7.915 87.6917 8.255 87.4817 8.565C87.2817 8.865 86.9917 9.105 86.6117 9.285C86.2317 9.465 85.7867 9.555 85.2767 9.555C84.5667 9.555 83.9667 9.38 83.4767 9.03C83.4267 9.01 83.3917 8.98 83.3717 8.94C83.3617 8.9 83.3517 8.835 83.3417 8.745L83.1917 7.26C83.1817 7.22 83.2017 7.195 83.2517 7.185C83.3117 7.175 83.3517 7.19 83.3717 7.23C83.5117 7.81 83.7867 8.305 84.1967 8.715C84.6167 9.115 85.0817 9.315 85.5917 9.315C85.9417 9.315 86.2417 9.215 86.4917 9.015C86.7517 8.805 86.8817 8.485 86.8817 8.055C86.8817 7.595 86.7317 7.22 86.4317 6.93C86.1317 6.64 85.6967 6.345 85.1267 6.045C84.7267 5.825 84.4067 5.635 84.1667 5.475C83.9367 5.305 83.7417 5.1 83.5817 4.86C83.4217 4.62 83.3417 4.33 83.3417 3.99C83.3417 3.42 83.5617 2.975 84.0017 2.655C84.4417 2.335 84.9767 2.175 85.6067 2.175C86.1167 2.175 86.6167 2.29 87.1067 2.52C87.1967 2.57 87.2517 2.61 87.2717 2.64C87.3017 2.67 87.3217 2.715 87.3317 2.775L87.4217 4.08C87.4217 4.12 87.3917 4.145 87.3317 4.155C87.2817 4.165 87.2517 4.15 87.2417 4.11C87.1917 3.86 87.0767 3.605 86.8967 3.345C86.7267 3.075 86.5067 2.85 86.2367 2.67C85.9667 2.49 85.6667 2.4 85.3367 2.4C84.9767 2.4 84.6967 2.51 84.4967 2.73C84.2967 2.95 84.1967 3.23 84.1967 3.57Z" fill="black"/>
</svg>
