<svg width="130" height="7" viewBox="0 0 130 7" fill="none" xmlns="http://www.w3.org/2000/svg">
<path d="M0.820117 0.229999L1.05012 0.25V5.16C1.05012 5.50667 1.11012 5.75667 1.23012 5.91C1.35678 6.05667 1.55678 6.13 1.83012 6.13C1.85012 6.13 1.86012 6.15 1.86012 6.19C1.86012 6.23 1.85012 6.25 1.83012 6.25C1.66345 6.25 1.53678 6.24667 1.45012 6.24L0.950117 6.23L0.440117 6.24C0.346784 6.24667 0.210117 6.25 0.0301172 6.25C0.0167839 6.25 0.0101172 6.23 0.0101172 6.19C0.0101172 6.15 0.0167839 6.13 0.0301172 6.13C0.316784 6.13 0.520117 6.05667 0.640117 5.91C0.760117 5.75667 0.820117 5.50667 0.820117 5.16V0.229999ZM5.86012 6.37C5.86012 6.38333 5.84345 6.39333 5.81012 6.4C5.77678 6.40667 5.75345 6.40333 5.74012 6.39L1.14012 0.82C0.926784 0.56 0.730117 0.38 0.550117 0.28C0.376784 0.173333 0.203451 0.12 0.0301172 0.12C0.0101172 0.12 0.000117213 0.0999997 0.000117213 0.0599998C0.000117213 0.0199999 0.0101172 0 0.0301172 0L0.400117 0.00999987C0.480117 0.0166665 0.590117 0.0199997 0.730117 0.0199997C0.876784 0.0199997 0.996784 0.0166665 1.09012 0.00999987C1.18345 0.00333329 1.25678 0 1.31012 0C1.35678 0 1.39345 0.0133332 1.42012 0.0399995C1.45345 0.0599996 1.49012 0.106666 1.53012 0.179999C1.61012 0.3 1.69345 0.413333 1.78012 0.52L5.78012 5.43L5.86012 6.37ZM5.86012 6.37L5.63012 6.06V1.1C5.63012 0.753333 5.57012 0.503333 5.45012 0.35C5.33678 0.196666 5.14345 0.12 4.87012 0.12C4.85678 0.12 4.85012 0.0999997 4.85012 0.0599998C4.85012 0.0199999 4.85678 0 4.87012 0L5.26012 0.00999987C5.46012 0.023333 5.62345 0.0299996 5.75012 0.0299996C5.87012 0.0299996 6.03678 0.023333 6.25012 0.00999987L6.66012 0C6.68012 0 6.69012 0.0199999 6.69012 0.0599998C6.69012 0.0999997 6.68012 0.12 6.66012 0.12C6.38012 0.12 6.17678 0.196666 6.05012 0.35C5.92345 0.503333 5.86012 0.753333 5.86012 1.1V6.37ZM9.63574 6.37C9.16908 6.37 8.75241 6.26 8.38574 6.04C8.02574 5.82 7.74574 5.52333 7.54574 5.15C7.34574 4.77667 7.24574 4.37333 7.24574 3.94C7.24574 3.42 7.37908 2.97333 7.64574 2.6C7.91908 2.22 8.26241 1.93333 8.67574 1.74C9.09574 1.54667 9.52241 1.45 9.95574 1.45C10.4224 1.45 10.8324 1.56667 11.1857 1.8C11.5457 2.02667 11.8191 2.32333 12.0057 2.69C12.1991 3.05667 12.2957 3.44 12.2957 3.84C12.2957 4.28667 12.1757 4.70667 11.9357 5.1C11.6957 5.48667 11.3724 5.79667 10.9657 6.03C10.5591 6.25667 10.1157 6.37 9.63574 6.37ZM9.89574 6.16C10.4157 6.16 10.8291 5.97667 11.1357 5.61C11.4491 5.24333 11.6057 4.73667 11.6057 4.09C11.6057 3.64333 11.5257 3.23667 11.3657 2.87C11.2124 2.50333 10.9857 2.21 10.6857 1.99C10.3857 1.77 10.0291 1.66 9.61574 1.66C9.08241 1.66 8.66908 1.84 8.37574 2.2C8.08241 2.55333 7.93574 3.05 7.93574 3.69C7.93574 4.15 8.01241 4.56667 8.16574 4.94C8.32574 5.31333 8.55241 5.61 8.84574 5.83C9.14574 6.05 9.49574 6.16 9.89574 6.16ZM14.8972 6.37C14.5172 6.37 14.2006 6.26333 13.9472 6.05C13.7006 5.83667 13.5772 5.48333 13.5772 4.99V2.37C13.5772 2.20333 13.5639 2.08667 13.5372 2.02C13.5172 1.94667 13.4706 1.9 13.3972 1.88C13.3306 1.85333 13.2172 1.84 13.0572 1.84C13.0372 1.84 13.0272 1.82 13.0272 1.78C13.0272 1.73333 13.0372 1.71 13.0572 1.71C13.3239 1.71 13.5472 1.64 13.7272 1.5C13.9139 1.36 14.0139 1.18 14.0272 0.96C14.0272 0.94 14.0506 0.93 14.0972 0.93C14.1239 0.93 14.1406 0.996667 14.1472 1.13C14.1606 1.26333 14.1672 1.63667 14.1672 2.25C14.1739 2.85667 14.1772 3.66333 14.1772 4.67C14.1772 5.13667 14.2672 5.48333 14.4472 5.71C14.6272 5.93 14.9006 6.04 15.2672 6.04C15.6206 6.04 15.9306 5.95 16.1972 5.77L16.2172 5.76C16.2372 5.76 16.2539 5.77667 16.2672 5.81C16.2806 5.83667 16.2772 5.85667 16.2572 5.87C15.9839 6.05 15.7439 6.17667 15.5372 6.25C15.3372 6.33 15.1239 6.37 14.8972 6.37ZM15.9572 2.1C15.3772 1.94667 14.7306 1.87 14.0172 1.87V1.69C14.4772 1.69 15.1339 1.66 15.9872 1.6C16.0072 1.6 16.0239 1.62 16.0372 1.66C16.0506 1.7 16.0572 1.75333 16.0572 1.82C16.0572 1.88 16.0439 1.94333 16.0172 2.01C15.9972 2.07667 15.9772 2.10667 15.9572 2.1ZM19.101 6.25C19.0876 6.25 19.081 6.23 19.081 6.19C19.081 6.15 19.0876 6.13 19.101 6.13C19.321 6.13 19.481 6.11333 19.581 6.08C19.681 6.04667 19.7476 5.98333 19.781 5.89C19.821 5.79 19.841 5.64 19.841 5.44V2.38C19.841 2.18 19.821 2.03333 19.781 1.94C19.7476 1.84667 19.681 1.78333 19.581 1.75C19.481 1.71 19.321 1.69 19.101 1.69C19.0876 1.69 19.081 1.67 19.081 1.63C19.081 1.59 19.0876 1.57 19.101 1.57H22.581C22.6476 1.57 22.681 1.59667 22.681 1.65L22.691 2.27C22.6976 2.39667 22.701 2.55667 22.701 2.75C22.701 2.77 22.681 2.78 22.641 2.78C22.601 2.78 22.581 2.77 22.581 2.75C22.5476 2.43 22.4376 2.17667 22.251 1.99C22.0643 1.79667 21.821 1.7 21.521 1.7H21.241C21.0076 1.7 20.8376 1.72 20.731 1.76C20.6243 1.79333 20.551 1.85667 20.511 1.95C20.471 2.04333 20.451 2.19 20.451 2.39V5.4C20.451 5.61333 20.4743 5.77 20.521 5.87C20.5676 5.96333 20.6576 6.03 20.791 6.07C20.931 6.11 21.1476 6.13 21.441 6.13C21.461 6.13 21.471 6.15 21.471 6.19C21.471 6.23 21.461 6.25 21.441 6.25C21.201 6.25 21.0176 6.24667 20.891 6.24L20.141 6.23L19.601 6.24C19.4876 6.24667 19.321 6.25 19.101 6.25ZM22.171 4.22C22.1443 4.22 21.9976 4.2 21.731 4.16C21.471 4.11333 20.9576 4.09 20.191 4.09V3.87C20.951 3.87 21.461 3.85667 21.721 3.83C21.9876 3.79667 22.1376 3.78 22.171 3.78C22.2043 3.78 22.221 3.85 22.221 3.99C22.221 4.14333 22.2043 4.22 22.171 4.22ZM25.7686 6.37C25.3019 6.37 24.8852 6.26 24.5186 6.04C24.1586 5.82 23.8786 5.52333 23.6786 5.15C23.4786 4.77667 23.3786 4.37333 23.3786 3.94C23.3786 3.42 23.5119 2.97333 23.7786 2.6C24.0519 2.22 24.3952 1.93333 24.8086 1.74C25.2286 1.54667 25.6552 1.45 26.0886 1.45C26.5552 1.45 26.9652 1.56667 27.3186 1.8C27.6786 2.02667 27.9519 2.32333 28.1386 2.69C28.3319 3.05667 28.4286 3.44 28.4286 3.84C28.4286 4.28667 28.3086 4.70667 28.0686 5.1C27.8286 5.48667 27.5052 5.79667 27.0986 6.03C26.6919 6.25667 26.2486 6.37 25.7686 6.37ZM26.0286 6.16C26.5486 6.16 26.9619 5.97667 27.2686 5.61C27.5819 5.24333 27.7386 4.73667 27.7386 4.09C27.7386 3.64333 27.6586 3.23667 27.4986 2.87C27.3452 2.50333 27.1186 2.21 26.8186 1.99C26.5186 1.77 26.1619 1.66 25.7486 1.66C25.2152 1.66 24.8019 1.84 24.5086 2.2C24.2152 2.55333 24.0686 3.05 24.0686 3.69C24.0686 4.15 24.1452 4.56667 24.2986 4.94C24.4586 5.31333 24.6852 5.61 24.9786 5.83C25.2786 6.05 25.6286 6.16 26.0286 6.16ZM31.25 6.13C31.2634 6.13 31.27 6.15 31.27 6.19C31.27 6.23 31.2634 6.25 31.25 6.25C31.0634 6.25 30.92 6.24667 30.82 6.24L30.19 6.23L29.6 6.24C29.4867 6.24667 29.3334 6.25 29.14 6.25C29.1267 6.25 29.12 6.23 29.12 6.19C29.12 6.15 29.1267 6.13 29.14 6.13C29.36 6.13 29.52 6.11333 29.62 6.08C29.7267 6.04667 29.8 5.98333 29.84 5.89C29.88 5.79 29.9 5.64 29.9 5.44V2.38C29.9 2.18 29.88 2.03333 29.84 1.94C29.8067 1.84667 29.7367 1.78333 29.63 1.75C29.53 1.71 29.37 1.69 29.15 1.69C29.1367 1.69 29.13 1.67 29.13 1.63C29.13 1.59 29.1367 1.57 29.15 1.57L29.61 1.58C29.85 1.59333 30.0434 1.6 30.19 1.6C30.31 1.6 30.42 1.59667 30.52 1.59C30.6267 1.58333 30.7167 1.57667 30.79 1.57C31.0034 1.55 31.2 1.54 31.38 1.54C31.8134 1.54 32.1434 1.62333 32.37 1.79C32.5967 1.95667 32.71 2.19667 32.71 2.51C32.71 2.78333 32.63 3.03667 32.47 3.27C32.31 3.50333 32.09 3.69 31.81 3.83C31.53 3.96333 31.2234 4.03 30.89 4.03C30.6767 4.03 30.4934 4.01667 30.34 3.99L30.33 3.79C30.4967 3.83667 30.7067 3.86 30.96 3.86C31.3734 3.86 31.66 3.77 31.82 3.59C31.9867 3.40333 32.07 3.13333 32.07 2.78C32.07 2.04667 31.7534 1.68 31.12 1.68C30.8667 1.68 30.7 1.73333 30.62 1.84C30.5467 1.94667 30.51 2.13333 30.51 2.4V5.44C30.51 5.64667 30.5267 5.79667 30.56 5.89C30.5934 5.98333 30.66 6.04667 30.76 6.08C30.86 6.11333 31.0234 6.13 31.25 6.13ZM34.22 6.13C34.2334 6.13 34.24 6.15 34.24 6.19C34.24 6.23 34.2334 6.25 34.22 6.25H33.05C32.93 6.25 32.7134 6.04333 32.4 5.63C32.0867 5.21667 31.7134 4.65 31.28 3.93L31.81 3.72C32.1967 4.35333 32.52 4.84 32.78 5.18C33.04 5.52 33.28 5.76333 33.5 5.91C33.7267 6.05667 33.9667 6.13 34.22 6.13ZM40.9758 2.4C40.9758 2.2 40.9558 2.05333 40.9158 1.96C40.8825 1.86 40.8125 1.79 40.7058 1.75C40.6058 1.71 40.4492 1.69 40.2358 1.69C40.2158 1.69 40.2058 1.67 40.2058 1.63C40.2058 1.59 40.2158 1.57 40.2358 1.57L40.6758 1.58C40.9158 1.59333 41.1192 1.6 41.2858 1.6C41.4325 1.6 41.6325 1.59333 41.8858 1.58L42.3358 1.57C42.3558 1.57 42.3658 1.59 42.3658 1.63C42.3658 1.67 42.3558 1.69 42.3358 1.69C42.1158 1.69 41.9525 1.71 41.8458 1.75C41.7458 1.78333 41.6758 1.84667 41.6358 1.94C41.5958 2.03333 41.5758 2.18 41.5758 2.38V5.44C41.5758 5.64 41.5958 5.79 41.6358 5.89C41.6758 5.98333 41.7458 6.04667 41.8458 6.08C41.9525 6.11333 42.1158 6.13 42.3358 6.13C42.3558 6.13 42.3658 6.15 42.3658 6.19C42.3658 6.23 42.3558 6.25 42.3358 6.25C42.1492 6.25 41.9992 6.24667 41.8858 6.24L41.2858 6.23L40.6758 6.24C40.5692 6.24667 40.4225 6.25 40.2358 6.25C40.2158 6.25 40.2058 6.23 40.2058 6.19C40.2058 6.15 40.2158 6.13 40.2358 6.13C40.4558 6.13 40.6158 6.11333 40.7158 6.08C40.8158 6.04667 40.8825 5.98333 40.9158 5.89C40.9558 5.79 40.9758 5.64 40.9758 5.44V2.4ZM37.8458 3.8H41.2358V3.98H37.8458V3.8ZM37.5758 2.38C37.5758 2.18 37.5558 2.03333 37.5158 1.94C37.4825 1.84667 37.4125 1.78333 37.3058 1.75C37.2058 1.71 37.0458 1.69 36.8258 1.69C36.8125 1.69 36.8058 1.67 36.8058 1.63C36.8058 1.59 36.8125 1.57 36.8258 1.57L37.2758 1.58C37.5292 1.59333 37.7258 1.6 37.8658 1.6C38.0325 1.6 38.2425 1.59333 38.4958 1.58L38.9258 1.57C38.9392 1.57 38.9458 1.59 38.9458 1.63C38.9458 1.67 38.9392 1.69 38.9258 1.69C38.7125 1.69 38.5525 1.71 38.4458 1.75C38.3392 1.79 38.2658 1.86 38.2258 1.96C38.1925 2.05333 38.1758 2.2 38.1758 2.4V5.44C38.1758 5.64667 38.1925 5.79667 38.2258 5.89C38.2658 5.98333 38.3358 6.04667 38.4358 6.08C38.5358 6.11333 38.6992 6.13 38.9258 6.13C38.9392 6.13 38.9458 6.15 38.9458 6.19C38.9458 6.23 38.9392 6.25 38.9258 6.25C38.7392 6.25 38.5925 6.24667 38.4858 6.24L37.8658 6.23L37.2758 6.24C37.1625 6.24667 37.0092 6.25 36.8158 6.25C36.8025 6.25 36.7958 6.23 36.7958 6.19C36.7958 6.15 36.8025 6.13 36.8158 6.13C37.0358 6.13 37.1958 6.11333 37.2958 6.08C37.4025 6.04667 37.4758 5.98333 37.5158 5.89C37.5558 5.79 37.5758 5.64 37.5758 5.44V2.38ZM47.1365 2.4C47.1365 2.2 47.1199 2.05333 47.0865 1.96C47.0532 1.86 46.9865 1.79 46.8865 1.75C46.7865 1.71 46.6299 1.69 46.4165 1.69C46.4032 1.69 46.3965 1.67 46.3965 1.63C46.3965 1.59 46.4032 1.57 46.4165 1.57L46.8565 1.58C47.1099 1.59333 47.3132 1.6 47.4665 1.6C47.6065 1.6 47.8032 1.59333 48.0565 1.58L48.4965 1.57C48.5099 1.57 48.5165 1.59 48.5165 1.63C48.5165 1.67 48.5099 1.69 48.4965 1.69C48.2765 1.69 48.1132 1.71 48.0065 1.75C47.9065 1.78333 47.8365 1.84667 47.7965 1.94C47.7565 2.03333 47.7365 2.18 47.7365 2.38V5.44C47.7365 5.64 47.7532 5.79 47.7865 5.89C47.8265 5.98333 47.8965 6.04667 47.9965 6.08C48.0965 6.11333 48.2532 6.13 48.4665 6.13C48.4865 6.13 48.4965 6.15 48.4965 6.19C48.4965 6.23 48.4865 6.25 48.4665 6.25L47.8165 6.24L47.3265 6.25C47.2465 6.25 47.1932 6.24 47.1665 6.22C47.1465 6.2 47.1365 6.14667 47.1365 6.06V2.4ZM47.4865 5.1C47.1132 5.54 46.7432 5.86333 46.3765 6.07C46.0165 6.27 45.6365 6.37 45.2365 6.37C44.7632 6.37 44.3699 6.24667 44.0565 6C43.7499 5.74667 43.5965 5.4 43.5965 4.96V2.38C43.5965 2.18 43.5799 2.03333 43.5465 1.94C43.5199 1.84667 43.4632 1.78333 43.3765 1.75C43.2965 1.71 43.1665 1.69 42.9865 1.69C42.9732 1.69 42.9665 1.67 42.9665 1.63C42.9665 1.59 42.9732 1.57 42.9865 1.57L43.3765 1.58C43.6032 1.59333 43.7765 1.6 43.8965 1.6C44.0632 1.6 44.2732 1.59333 44.5265 1.58L44.9365 1.57C44.9499 1.57 44.9565 1.59 44.9565 1.63C44.9565 1.67 44.9499 1.69 44.9365 1.69C44.7232 1.69 44.5632 1.71 44.4565 1.75C44.3565 1.79 44.2865 1.86 44.2465 1.96C44.2132 2.05333 44.1965 2.2 44.1965 2.4V4.62C44.1965 5.60667 44.6332 6.1 45.5065 6.1C45.8399 6.1 46.1532 6.01667 46.4465 5.85C46.7399 5.68333 47.0532 5.40333 47.3865 5.01L47.4865 5.1ZM55.5286 6.25C55.5153 6.25 55.5086 6.23 55.5086 6.19C55.5086 6.15 55.5153 6.13 55.5286 6.13C55.7486 6.13 55.9086 6.11333 56.0086 6.08C56.1153 6.04667 56.1853 5.98333 56.2186 5.89C56.2586 5.79 56.2786 5.64 56.2786 5.44V3.3C56.2786 2.76667 56.1886 2.37 56.0086 2.11C55.8286 1.85 55.5553 1.72 55.1886 1.72C54.8753 1.72 54.5753 1.81 54.2886 1.99C54.002 2.17 53.742 2.43 53.5086 2.77L53.4286 2.65C53.7686 2.22333 54.102 1.91667 54.4286 1.73C54.7553 1.53667 55.0986 1.44 55.4586 1.44C55.9053 1.44 56.252 1.57333 56.4986 1.84C56.7453 2.1 56.8686 2.48667 56.8686 3V5.44C56.8686 5.64667 56.8853 5.79667 56.9186 5.89C56.9586 5.98333 57.0286 6.04667 57.1286 6.08C57.2286 6.11333 57.392 6.13 57.6186 6.13C57.632 6.13 57.6386 6.15 57.6386 6.19C57.6386 6.23 57.632 6.25 57.6186 6.25C57.4386 6.25 57.2986 6.24667 57.1986 6.24L56.5686 6.23L55.9586 6.24C55.852 6.24667 55.7086 6.25 55.5286 6.25ZM52.3786 6.25C52.3653 6.25 52.3586 6.23 52.3586 6.19C52.3586 6.15 52.3653 6.13 52.3786 6.13C52.5986 6.13 52.7586 6.11333 52.8586 6.08C52.9653 6.04667 53.0353 5.98333 53.0686 5.89C53.1086 5.79 53.1286 5.64 53.1286 5.44V3.3C53.1286 2.76667 53.0386 2.37 52.8586 2.11C52.6786 1.85 52.4053 1.72 52.0386 1.72C51.7253 1.72 51.4253 1.81 51.1386 1.99C50.852 2.16333 50.5886 2.42333 50.3486 2.77L50.2786 2.65C50.6186 2.23 50.952 1.92333 51.2786 1.73C51.6053 1.53667 51.9486 1.44 52.3086 1.44C52.7553 1.44 53.102 1.57333 53.3486 1.84C53.5953 2.1 53.7186 2.48667 53.7186 3V5.44C53.7186 5.64 53.7353 5.79 53.7686 5.89C53.8086 5.98333 53.8786 6.04667 53.9786 6.08C54.0786 6.11333 54.2386 6.13 54.4586 6.13C54.4786 6.13 54.4886 6.15 54.4886 6.19C54.4886 6.23 54.4786 6.25 54.4586 6.25C54.2853 6.25 54.1486 6.24667 54.0486 6.24L53.4086 6.23L52.7986 6.24C52.6986 6.24667 52.5586 6.25 52.3786 6.25ZM49.2286 6.25C49.2086 6.25 49.1986 6.23 49.1986 6.19C49.1986 6.15 49.2086 6.13 49.2286 6.13C49.442 6.13 49.5986 6.11333 49.6986 6.08C49.7986 6.04667 49.8653 5.98333 49.8986 5.89C49.9386 5.79 49.9586 5.64 49.9586 5.44V2.38C49.9586 2.18 49.9386 2.03333 49.8986 1.94C49.8653 1.84667 49.7953 1.78333 49.6886 1.75C49.582 1.71 49.4186 1.69 49.1986 1.69C49.1853 1.69 49.1786 1.67 49.1786 1.63C49.1786 1.59 49.1853 1.57 49.1986 1.57L49.9286 1.58L50.3686 1.57C50.4553 1.57 50.5086 1.58333 50.5286 1.61C50.5486 1.63 50.5586 1.68 50.5586 1.76V5.44C50.5586 5.64667 50.5753 5.79667 50.6086 5.89C50.6486 5.98333 50.7186 6.04667 50.8186 6.08C50.9186 6.11333 51.082 6.13 51.3086 6.13C51.322 6.13 51.3286 6.15 51.3286 6.19C51.3286 6.23 51.322 6.25 51.3086 6.25C51.1286 6.25 50.9886 6.24667 50.8886 6.24L50.2486 6.23L49.6486 6.24C49.542 6.24667 49.402 6.25 49.2286 6.25ZM61.4456 6.31C61.4189 6.32333 61.3956 6.33 61.3756 6.33C61.2556 6.33 61.1389 6.25 61.0256 6.09C60.9189 5.92333 60.8656 5.7 60.8656 5.42V2.88C60.8656 2.47333 60.8056 2.17667 60.6856 1.99C60.5723 1.80333 60.3889 1.71 60.1356 1.71C59.8289 1.71 59.6023 1.80667 59.4556 2C59.3156 2.18667 59.2056 2.43333 59.1256 2.74C59.0923 2.85333 59.0456 2.94667 58.9856 3.02C58.9323 3.08667 58.8489 3.12 58.7356 3.12C58.6289 3.12 58.5423 3.09 58.4756 3.03C58.4089 2.96333 58.3756 2.88333 58.3756 2.79C58.3756 2.62333 58.4923 2.43667 58.7256 2.23C58.9656 2.02333 59.2556 1.84667 59.5956 1.7C59.9356 1.55333 60.2423 1.48 60.5156 1.48C60.8023 1.48 61.0323 1.57333 61.2056 1.76C61.3789 1.94 61.4656 2.21333 61.4656 2.58V5.08C61.4656 5.58 61.6289 5.83 61.9556 5.83C62.0889 5.83 62.2523 5.78667 62.4456 5.7H62.4656C62.4923 5.7 62.5089 5.71667 62.5156 5.75C62.5289 5.77667 62.5223 5.79667 62.4956 5.81L61.4456 6.31ZM59.1956 6.32C58.9623 6.32 58.7656 6.25 58.6056 6.11C58.4456 5.97 58.3656 5.81 58.3656 5.63C58.3656 5.37667 58.4489 5.17333 58.6156 5.02C58.7823 4.86667 59.0923 4.70667 59.5456 4.54L60.9756 4.02L60.9956 4.14L59.7556 4.62C59.5089 4.71333 59.3356 4.82 59.2356 4.94C59.1356 5.06 59.0856 5.20333 59.0856 5.37C59.0856 5.53 59.1389 5.67 59.2456 5.79C59.3589 5.90333 59.4889 5.96 59.6356 5.96C59.7956 5.96 59.9723 5.91 60.1656 5.81L61.0656 5.35L61.0856 5.48L60.2056 5.97C59.9723 6.09667 59.7789 6.18667 59.6256 6.24C59.4723 6.29333 59.3289 6.32 59.1956 6.32ZM64.201 5.42C64.201 5.62 64.2176 5.77 64.251 5.87C64.291 5.96333 64.361 6.03 64.461 6.07C64.561 6.11 64.7143 6.13 64.921 6.13C64.941 6.13 64.951 6.15 64.951 6.19C64.951 6.23 64.941 6.25 64.921 6.25C64.741 6.25 64.5976 6.24667 64.491 6.24L63.881 6.23L63.291 6.24C63.1843 6.24667 63.0376 6.25 62.851 6.25C62.8376 6.25 62.831 6.23 62.831 6.19C62.831 6.15 62.8376 6.13 62.851 6.13C63.0643 6.13 63.221 6.11333 63.321 6.08C63.4276 6.04 63.501 5.97333 63.541 5.88C63.581 5.78667 63.601 5.64 63.601 5.44V2.38C63.601 2.18 63.581 2.03333 63.541 1.94C63.5076 1.84667 63.441 1.78333 63.341 1.75C63.241 1.71 63.0876 1.69 62.881 1.69C62.861 1.69 62.851 1.67 62.851 1.63C62.851 1.59 62.861 1.57 62.881 1.57L63.531 1.58L64.021 1.57C64.101 1.57 64.151 1.58333 64.171 1.61C64.191 1.63 64.201 1.68 64.201 1.76V5.42ZM63.861 2.73C64.2343 2.28333 64.601 1.96 64.961 1.76C65.321 1.55333 65.7043 1.45 66.111 1.45C66.6043 1.45 67.001 1.58667 67.301 1.86C67.601 2.12667 67.751 2.54 67.751 3.1V5.44C67.751 5.64 67.7643 5.79 67.791 5.89C67.8243 5.98333 67.881 6.04667 67.961 6.08C68.0476 6.11333 68.181 6.13 68.361 6.13C68.3743 6.13 68.381 6.15 68.381 6.19C68.381 6.23 68.3743 6.25 68.361 6.25C68.1943 6.25 68.0643 6.24667 67.971 6.24L67.441 6.23L66.811 6.24C66.711 6.24667 66.5776 6.25 66.411 6.25C66.3976 6.25 66.391 6.23 66.391 6.19C66.391 6.15 66.3976 6.13 66.411 6.13C66.6243 6.13 66.781 6.11 66.881 6.07C66.9876 6.03 67.0576 5.96333 67.091 5.87C67.131 5.77 67.151 5.62 67.151 5.42V3.43C67.151 2.79 67.0376 2.34667 66.811 2.1C66.591 1.84667 66.271 1.72 65.851 1.72C65.5176 1.72 65.2043 1.80333 64.911 1.97C64.6243 2.13 64.3076 2.41333 63.961 2.82L63.861 2.73ZM73.9215 1.45C74.1749 1.45 74.4449 1.47667 74.7315 1.53C75.0249 1.57667 75.2615 1.64667 75.4415 1.74C75.4882 1.76 75.5182 1.78 75.5315 1.8C75.5449 1.82 75.5549 1.85667 75.5615 1.91L75.6615 2.94C75.6615 2.96 75.6415 2.97333 75.6015 2.98C75.5682 2.98667 75.5482 2.97667 75.5415 2.95C75.4215 2.49 75.2015 2.15 74.8815 1.93C74.5682 1.71 74.1782 1.6 73.7115 1.6C73.3649 1.6 73.0515 1.69333 72.7715 1.88C72.4915 2.06667 72.2715 2.32333 72.1115 2.65C71.9582 2.97 71.8815 3.33333 71.8815 3.74C71.8815 4.15333 71.9615 4.55333 72.1215 4.94C72.2815 5.32 72.5182 5.63 72.8315 5.87C73.1515 6.11 73.5349 6.23 73.9815 6.23C74.3882 6.23 74.7315 6.11667 75.0115 5.89C75.2982 5.66333 75.5049 5.31667 75.6315 4.85C75.6315 4.83 75.6482 4.82 75.6815 4.82C75.6949 4.82 75.7082 4.82667 75.7215 4.84C75.7415 4.84667 75.7515 4.85333 75.7515 4.86L75.6215 5.92C75.6149 5.97333 75.6049 6.01 75.5915 6.03C75.5782 6.05 75.5415 6.07333 75.4815 6.1C74.9682 6.28 74.4349 6.37 73.8815 6.37C73.2482 6.37 72.7282 6.24333 72.3215 5.99C71.9149 5.73667 71.6215 5.42 71.4415 5.04C71.2615 4.66 71.1715 4.27667 71.1715 3.89C71.1715 3.43667 71.2915 3.02333 71.5315 2.65C71.7715 2.27667 72.1015 1.98333 72.5215 1.77C72.9415 1.55667 73.4082 1.45 73.9215 1.45ZM78.874 6.37C78.4074 6.37 77.9907 6.26 77.624 6.04C77.264 5.82 76.984 5.52333 76.784 5.15C76.584 4.77667 76.484 4.37333 76.484 3.94C76.484 3.42 76.6174 2.97333 76.884 2.6C77.1574 2.22 77.5007 1.93333 77.914 1.74C78.334 1.54667 78.7607 1.45 79.194 1.45C79.6607 1.45 80.0707 1.56667 80.424 1.8C80.784 2.02667 81.0574 2.32333 81.244 2.69C81.4374 3.05667 81.534 3.44 81.534 3.84C81.534 4.28667 81.414 4.70667 81.174 5.1C80.934 5.48667 80.6107 5.79667 80.204 6.03C79.7974 6.25667 79.354 6.37 78.874 6.37ZM79.134 6.16C79.654 6.16 80.0674 5.97667 80.374 5.61C80.6874 5.24333 80.844 4.73667 80.844 4.09C80.844 3.64333 80.764 3.23667 80.604 2.87C80.4507 2.50333 80.224 2.21 79.924 1.99C79.624 1.77 79.2674 1.66 78.854 1.66C78.3207 1.66 77.9074 1.84 77.614 2.2C77.3207 2.55333 77.174 3.05 77.174 3.69C77.174 4.15 77.2507 4.56667 77.404 4.94C77.564 5.31333 77.7907 5.61 78.084 5.83C78.384 6.05 78.734 6.16 79.134 6.16ZM83.5955 5.42C83.5955 5.62 83.6122 5.77 83.6455 5.87C83.6855 5.96333 83.7555 6.03 83.8555 6.07C83.9555 6.11 84.1088 6.13 84.3155 6.13C84.3355 6.13 84.3455 6.15 84.3455 6.19C84.3455 6.23 84.3355 6.25 84.3155 6.25C84.1355 6.25 83.9922 6.24667 83.8855 6.24L83.2755 6.23L82.6855 6.24C82.5788 6.24667 82.4322 6.25 82.2455 6.25C82.2322 6.25 82.2255 6.23 82.2255 6.19C82.2255 6.15 82.2322 6.13 82.2455 6.13C82.4588 6.13 82.6155 6.11333 82.7155 6.08C82.8222 6.04 82.8955 5.97333 82.9355 5.88C82.9755 5.78667 82.9955 5.64 82.9955 5.44V2.38C82.9955 2.18 82.9755 2.03333 82.9355 1.94C82.9022 1.84667 82.8355 1.78333 82.7355 1.75C82.6355 1.71 82.4822 1.69 82.2755 1.69C82.2555 1.69 82.2455 1.67 82.2455 1.63C82.2455 1.59 82.2555 1.57 82.2755 1.57L82.9255 1.58L83.4155 1.57C83.4955 1.57 83.5455 1.58333 83.5655 1.61C83.5855 1.63 83.5955 1.68 83.5955 1.76V5.42ZM83.2555 2.73C83.6288 2.28333 83.9955 1.96 84.3555 1.76C84.7155 1.55333 85.0988 1.45 85.5055 1.45C85.9988 1.45 86.3955 1.58667 86.6955 1.86C86.9955 2.12667 87.1455 2.54 87.1455 3.1V5.44C87.1455 5.64 87.1588 5.79 87.1855 5.89C87.2188 5.98333 87.2755 6.04667 87.3555 6.08C87.4422 6.11333 87.5755 6.13 87.7555 6.13C87.7688 6.13 87.7755 6.15 87.7755 6.19C87.7755 6.23 87.7688 6.25 87.7555 6.25C87.5888 6.25 87.4588 6.24667 87.3655 6.24L86.8355 6.23L86.2055 6.24C86.1055 6.24667 85.9722 6.25 85.8055 6.25C85.7922 6.25 85.7855 6.23 85.7855 6.19C85.7855 6.15 85.7922 6.13 85.8055 6.13C86.0188 6.13 86.1755 6.11 86.2755 6.07C86.3822 6.03 86.4522 5.96333 86.4855 5.87C86.5255 5.77 86.5455 5.62 86.5455 5.42V3.43C86.5455 2.79 86.4322 2.34667 86.2055 2.1C85.9855 1.84667 85.6655 1.72 85.2455 1.72C84.9122 1.72 84.5988 1.80333 84.3055 1.97C84.0188 2.13 83.7022 2.41333 83.3555 2.82L83.2555 2.73ZM89.0323 2.38C89.0323 2.66667 89.129 2.9 89.3223 3.08C89.5156 3.25333 89.8056 3.43667 90.1923 3.63C90.4656 3.77 90.6823 3.89667 90.8423 4.01C91.009 4.12333 91.149 4.26333 91.2623 4.43C91.3756 4.59667 91.4323 4.79667 91.4323 5.03C91.4323 5.27667 91.3623 5.50333 91.2223 5.71C91.089 5.91 90.8956 6.07 90.6423 6.19C90.389 6.31 90.0923 6.37 89.7523 6.37C89.279 6.37 88.879 6.25333 88.5523 6.02C88.519 6.00667 88.4956 5.98667 88.4823 5.96C88.4756 5.93333 88.469 5.89 88.4623 5.83L88.3623 4.84C88.3556 4.81333 88.369 4.79667 88.4023 4.79C88.4423 4.78333 88.469 4.79333 88.4823 4.82C88.5756 5.20667 88.759 5.53667 89.0323 5.81C89.3123 6.07667 89.6223 6.21 89.9623 6.21C90.1956 6.21 90.3956 6.14333 90.5623 6.01C90.7356 5.87 90.8223 5.65667 90.8223 5.37C90.8223 5.06333 90.7223 4.81333 90.5223 4.62C90.3223 4.42667 90.0323 4.23 89.6523 4.03C89.3856 3.88333 89.1723 3.75667 89.0123 3.65C88.859 3.53667 88.729 3.4 88.6223 3.24C88.5156 3.08 88.4623 2.88667 88.4623 2.66C88.4623 2.28 88.609 1.98333 88.9023 1.77C89.1956 1.55667 89.5523 1.45 89.9723 1.45C90.3123 1.45 90.6456 1.52667 90.9723 1.68C91.0323 1.71333 91.069 1.74 91.0823 1.76C91.1023 1.78 91.1156 1.81 91.1223 1.85L91.1823 2.72C91.1823 2.74667 91.1623 2.76333 91.1223 2.77C91.089 2.77667 91.069 2.76667 91.0623 2.74C91.029 2.57333 90.9523 2.40333 90.8323 2.23C90.719 2.05 90.5723 1.9 90.3923 1.78C90.2123 1.66 90.0123 1.6 89.7923 1.6C89.5523 1.6 89.3656 1.67333 89.2323 1.82C89.099 1.96667 89.0323 2.15333 89.0323 2.38ZM96.2283 2.4C96.2283 2.2 96.2117 2.05333 96.1783 1.96C96.145 1.86 96.0783 1.79 95.9783 1.75C95.8783 1.71 95.7217 1.69 95.5083 1.69C95.495 1.69 95.4883 1.67 95.4883 1.63C95.4883 1.59 95.495 1.57 95.5083 1.57L95.9483 1.58C96.2017 1.59333 96.405 1.6 96.5583 1.6C96.6983 1.6 96.895 1.59333 97.1483 1.58L97.5883 1.57C97.6017 1.57 97.6083 1.59 97.6083 1.63C97.6083 1.67 97.6017 1.69 97.5883 1.69C97.3683 1.69 97.205 1.71 97.0983 1.75C96.9983 1.78333 96.9283 1.84667 96.8883 1.94C96.8483 2.03333 96.8283 2.18 96.8283 2.38V5.44C96.8283 5.64 96.845 5.79 96.8783 5.89C96.9183 5.98333 96.9883 6.04667 97.0883 6.08C97.1883 6.11333 97.345 6.13 97.5583 6.13C97.5783 6.13 97.5883 6.15 97.5883 6.19C97.5883 6.23 97.5783 6.25 97.5583 6.25L96.9083 6.24L96.4183 6.25C96.3383 6.25 96.285 6.24 96.2583 6.22C96.2383 6.2 96.2283 6.14667 96.2283 6.06V2.4ZM96.5783 5.1C96.205 5.54 95.835 5.86333 95.4683 6.07C95.1083 6.27 94.7283 6.37 94.3283 6.37C93.855 6.37 93.4617 6.24667 93.1483 6C92.8417 5.74667 92.6883 5.4 92.6883 4.96V2.38C92.6883 2.18 92.6717 2.03333 92.6383 1.94C92.6117 1.84667 92.555 1.78333 92.4683 1.75C92.3883 1.71 92.2583 1.69 92.0783 1.69C92.065 1.69 92.0583 1.67 92.0583 1.63C92.0583 1.59 92.065 1.57 92.0783 1.57L92.4683 1.58C92.695 1.59333 92.8683 1.6 92.9883 1.6C93.155 1.6 93.365 1.59333 93.6183 1.58L94.0283 1.57C94.0417 1.57 94.0483 1.59 94.0483 1.63C94.0483 1.67 94.0417 1.69 94.0283 1.69C93.815 1.69 93.655 1.71 93.5483 1.75C93.4483 1.79 93.3783 1.86 93.3383 1.96C93.305 2.05333 93.2883 2.2 93.2883 2.4V4.62C93.2883 5.60667 93.725 6.1 94.5983 6.1C94.9317 6.1 95.245 6.01667 95.5383 5.85C95.8317 5.68333 96.145 5.40333 96.4783 5.01L96.5783 5.1ZM104.62 6.25C104.607 6.25 104.6 6.23 104.6 6.19C104.6 6.15 104.607 6.13 104.62 6.13C104.84 6.13 105 6.11333 105.1 6.08C105.207 6.04667 105.277 5.98333 105.31 5.89C105.35 5.79 105.37 5.64 105.37 5.44V3.3C105.37 2.76667 105.28 2.37 105.1 2.11C104.92 1.85 104.647 1.72 104.28 1.72C103.967 1.72 103.667 1.81 103.38 1.99C103.094 2.17 102.834 2.43 102.6 2.77L102.52 2.65C102.86 2.22333 103.194 1.91667 103.52 1.73C103.847 1.53667 104.19 1.44 104.55 1.44C104.997 1.44 105.344 1.57333 105.59 1.84C105.837 2.1 105.96 2.48667 105.96 3V5.44C105.96 5.64667 105.977 5.79667 106.01 5.89C106.05 5.98333 106.12 6.04667 106.22 6.08C106.32 6.11333 106.484 6.13 106.71 6.13C106.724 6.13 106.73 6.15 106.73 6.19C106.73 6.23 106.724 6.25 106.71 6.25C106.53 6.25 106.39 6.24667 106.29 6.24L105.66 6.23L105.05 6.24C104.944 6.24667 104.8 6.25 104.62 6.25ZM101.47 6.25C101.457 6.25 101.45 6.23 101.45 6.19C101.45 6.15 101.457 6.13 101.47 6.13C101.69 6.13 101.85 6.11333 101.95 6.08C102.057 6.04667 102.127 5.98333 102.16 5.89C102.2 5.79 102.22 5.64 102.22 5.44V3.3C102.22 2.76667 102.13 2.37 101.95 2.11C101.77 1.85 101.497 1.72 101.13 1.72C100.817 1.72 100.517 1.81 100.23 1.99C99.9438 2.16333 99.6804 2.42333 99.4404 2.77L99.3704 2.65C99.7104 2.23 100.044 1.92333 100.37 1.73C100.697 1.53667 101.04 1.44 101.4 1.44C101.847 1.44 102.194 1.57333 102.44 1.84C102.687 2.1 102.81 2.48667 102.81 3V5.44C102.81 5.64 102.827 5.79 102.86 5.89C102.9 5.98333 102.97 6.04667 103.07 6.08C103.17 6.11333 103.33 6.13 103.55 6.13C103.57 6.13 103.58 6.15 103.58 6.19C103.58 6.23 103.57 6.25 103.55 6.25C103.377 6.25 103.24 6.24667 103.14 6.24L102.5 6.23L101.89 6.24C101.79 6.24667 101.65 6.25 101.47 6.25ZM98.3204 6.25C98.3004 6.25 98.2904 6.23 98.2904 6.19C98.2904 6.15 98.3004 6.13 98.3204 6.13C98.5338 6.13 98.6904 6.11333 98.7904 6.08C98.8904 6.04667 98.9571 5.98333 98.9904 5.89C99.0304 5.79 99.0504 5.64 99.0504 5.44V2.38C99.0504 2.18 99.0304 2.03333 98.9904 1.94C98.9571 1.84667 98.8871 1.78333 98.7804 1.75C98.6738 1.71 98.5104 1.69 98.2904 1.69C98.2771 1.69 98.2704 1.67 98.2704 1.63C98.2704 1.59 98.2771 1.57 98.2904 1.57L99.0204 1.58L99.4604 1.57C99.5471 1.57 99.6004 1.58333 99.6204 1.61C99.6404 1.63 99.6504 1.68 99.6504 1.76V5.44C99.6504 5.64667 99.6671 5.79667 99.7004 5.89C99.7404 5.98333 99.8104 6.04667 99.9104 6.08C100.01 6.11333 100.174 6.13 100.4 6.13C100.414 6.13 100.42 6.15 100.42 6.19C100.42 6.23 100.414 6.25 100.4 6.25C100.22 6.25 100.08 6.24667 99.9804 6.24L99.3404 6.23L98.7404 6.24C98.6338 6.24667 98.4938 6.25 98.3204 6.25ZM108.517 5.4C108.517 5.61333 108.541 5.77 108.587 5.87C108.634 5.96333 108.724 6.03 108.857 6.07C108.997 6.11 109.214 6.13 109.507 6.13C109.527 6.13 109.537 6.15 109.537 6.19C109.537 6.23 109.527 6.25 109.507 6.25C109.267 6.25 109.084 6.24667 108.957 6.24L108.217 6.23L107.627 6.24C107.514 6.24667 107.361 6.25 107.167 6.25C107.154 6.25 107.147 6.23 107.147 6.19C107.147 6.15 107.154 6.13 107.167 6.13C107.387 6.13 107.547 6.11333 107.647 6.08C107.747 6.04667 107.814 5.98333 107.847 5.89C107.887 5.79 107.907 5.64 107.907 5.44V2.38C107.907 2.18 107.887 2.03333 107.847 1.94C107.814 1.84667 107.744 1.78333 107.637 1.75C107.537 1.71 107.381 1.69 107.167 1.69C107.154 1.69 107.147 1.67 107.147 1.63C107.147 1.59 107.154 1.57 107.167 1.57L107.617 1.58C107.871 1.59333 108.067 1.6 108.207 1.6C108.321 1.6 108.427 1.59667 108.527 1.59C108.634 1.58333 108.724 1.57667 108.797 1.57C109.011 1.55 109.204 1.54 109.377 1.54C110.477 1.54 111.027 1.94667 111.027 2.76C111.027 3.08 110.944 3.35 110.777 3.57C110.617 3.78333 110.411 3.94333 110.157 4.05C109.911 4.15667 109.654 4.21 109.387 4.21C109.207 4.21 109.061 4.19667 108.947 4.17C108.927 4.17 108.917 4.15333 108.917 4.12C108.917 4.06667 108.937 4.04 108.977 4.04C109.077 4.06 109.181 4.07 109.287 4.07C109.581 4.07 109.827 3.97667 110.027 3.79C110.234 3.59667 110.337 3.32 110.337 2.96C110.337 2.54 110.227 2.22333 110.007 2.01C109.794 1.79 109.504 1.68 109.137 1.68C108.964 1.68 108.837 1.69333 108.757 1.72C108.677 1.74667 108.617 1.81 108.577 1.91C108.537 2.01 108.517 2.17333 108.517 2.4V5.4ZM113.677 6.37C113.297 6.37 112.98 6.26333 112.727 6.05C112.48 5.83667 112.357 5.48333 112.357 4.99V2.37C112.357 2.20333 112.343 2.08667 112.317 2.02C112.297 1.94667 112.25 1.9 112.177 1.88C112.11 1.85333 111.997 1.84 111.837 1.84C111.817 1.84 111.807 1.82 111.807 1.78C111.807 1.73333 111.817 1.71 111.837 1.71C112.103 1.71 112.327 1.64 112.507 1.5C112.693 1.36 112.793 1.18 112.807 0.96C112.807 0.94 112.83 0.93 112.877 0.93C112.903 0.93 112.92 0.996667 112.927 1.13C112.94 1.26333 112.947 1.63667 112.947 2.25C112.953 2.85667 112.957 3.66333 112.957 4.67C112.957 5.13667 113.047 5.48333 113.227 5.71C113.407 5.93 113.68 6.04 114.047 6.04C114.4 6.04 114.71 5.95 114.977 5.77L114.997 5.76C115.017 5.76 115.033 5.77667 115.047 5.81C115.06 5.83667 115.057 5.85667 115.037 5.87C114.763 6.05 114.523 6.17667 114.317 6.25C114.117 6.33 113.903 6.37 113.677 6.37ZM114.737 2.1C114.157 1.94667 113.51 1.87 112.797 1.87V1.69C113.257 1.69 113.913 1.66 114.767 1.6C114.787 1.6 114.803 1.62 114.817 1.66C114.83 1.7 114.837 1.75333 114.837 1.82C114.837 1.88 114.823 1.94333 114.797 2.01C114.777 2.07667 114.757 2.10667 114.737 2.1ZM116.967 5.44C116.967 5.64667 116.983 5.79667 117.017 5.89C117.057 5.98333 117.127 6.04667 117.227 6.08C117.327 6.11333 117.49 6.13 117.717 6.13C117.73 6.13 117.737 6.15 117.737 6.19C117.737 6.23 117.73 6.25 117.717 6.25C117.53 6.25 117.383 6.24667 117.277 6.24L116.647 6.23L116.057 6.24C115.943 6.24667 115.79 6.25 115.597 6.25C115.583 6.25 115.577 6.23 115.577 6.19C115.577 6.15 115.583 6.13 115.597 6.13C115.823 6.13 115.987 6.11333 116.087 6.08C116.187 6.04667 116.253 5.98333 116.287 5.89C116.327 5.79667 116.347 5.64667 116.347 5.44V2.38C116.347 2.18 116.327 2.03333 116.287 1.94C116.253 1.84667 116.183 1.78333 116.077 1.75C115.977 1.71 115.817 1.69 115.597 1.69C115.583 1.69 115.577 1.67 115.577 1.63C115.577 1.59 115.583 1.57 115.597 1.57L116.057 1.58C116.297 1.59333 116.493 1.6 116.647 1.6C116.82 1.6 117.033 1.59333 117.287 1.58L117.717 1.57C117.73 1.57 117.737 1.59 117.737 1.63C117.737 1.67 117.73 1.69 117.717 1.69C117.503 1.69 117.343 1.71 117.237 1.75C117.13 1.79 117.057 1.86 117.017 1.96C116.983 2.05333 116.967 2.2 116.967 2.4V5.44ZM120.866 6.37C120.4 6.37 119.983 6.26 119.616 6.04C119.256 5.82 118.976 5.52333 118.776 5.15C118.576 4.77667 118.476 4.37333 118.476 3.94C118.476 3.42 118.61 2.97333 118.876 2.6C119.15 2.22 119.493 1.93333 119.906 1.74C120.326 1.54667 120.753 1.45 121.186 1.45C121.653 1.45 122.063 1.56667 122.416 1.8C122.776 2.02667 123.05 2.32333 123.236 2.69C123.43 3.05667 123.526 3.44 123.526 3.84C123.526 4.28667 123.406 4.70667 123.166 5.1C122.926 5.48667 122.603 5.79667 122.196 6.03C121.79 6.25667 121.346 6.37 120.866 6.37ZM121.126 6.16C121.646 6.16 122.06 5.97667 122.366 5.61C122.68 5.24333 122.836 4.73667 122.836 4.09C122.836 3.64333 122.756 3.23667 122.596 2.87C122.443 2.50333 122.216 2.21 121.916 1.99C121.616 1.77 121.26 1.66 120.846 1.66C120.313 1.66 119.9 1.84 119.606 2.2C119.313 2.55333 119.166 3.05 119.166 3.69C119.166 4.15 119.243 4.56667 119.396 4.94C119.556 5.31333 119.783 5.61 120.076 5.83C120.376 6.05 120.726 6.16 121.126 6.16ZM125.588 5.42C125.588 5.62 125.604 5.77 125.638 5.87C125.678 5.96333 125.748 6.03 125.848 6.07C125.948 6.11 126.101 6.13 126.308 6.13C126.328 6.13 126.338 6.15 126.338 6.19C126.338 6.23 126.328 6.25 126.308 6.25C126.128 6.25 125.984 6.24667 125.878 6.24L125.268 6.23L124.678 6.24C124.571 6.24667 124.424 6.25 124.238 6.25C124.224 6.25 124.218 6.23 124.218 6.19C124.218 6.15 124.224 6.13 124.238 6.13C124.451 6.13 124.608 6.11333 124.708 6.08C124.814 6.04 124.888 5.97333 124.928 5.88C124.968 5.78667 124.988 5.64 124.988 5.44V2.38C124.988 2.18 124.968 2.03333 124.928 1.94C124.894 1.84667 124.828 1.78333 124.728 1.75C124.628 1.71 124.474 1.69 124.268 1.69C124.248 1.69 124.238 1.67 124.238 1.63C124.238 1.59 124.248 1.57 124.268 1.57L124.918 1.58L125.408 1.57C125.488 1.57 125.538 1.58333 125.558 1.61C125.578 1.63 125.588 1.68 125.588 1.76V5.42ZM125.248 2.73C125.621 2.28333 125.988 1.96 126.348 1.76C126.708 1.55333 127.091 1.45 127.498 1.45C127.991 1.45 128.388 1.58667 128.688 1.86C128.988 2.12667 129.138 2.54 129.138 3.1V5.44C129.138 5.64 129.151 5.79 129.178 5.89C129.211 5.98333 129.268 6.04667 129.348 6.08C129.434 6.11333 129.568 6.13 129.748 6.13C129.761 6.13 129.768 6.15 129.768 6.19C129.768 6.23 129.761 6.25 129.748 6.25C129.581 6.25 129.451 6.24667 129.358 6.24L128.828 6.23L128.198 6.24C128.098 6.24667 127.964 6.25 127.798 6.25C127.784 6.25 127.778 6.23 127.778 6.19C127.778 6.15 127.784 6.13 127.798 6.13C128.011 6.13 128.168 6.11 128.268 6.07C128.374 6.03 128.444 5.96333 128.478 5.87C128.518 5.77 128.538 5.62 128.538 5.42V3.43C128.538 2.79 128.424 2.34667 128.198 2.1C127.978 1.84667 127.658 1.72 127.238 1.72C126.904 1.72 126.591 1.80333 126.298 1.97C126.011 2.13 125.694 2.41333 125.348 2.82L125.248 2.73Z" fill="black"/>
</svg>
