<svg width="126" height="21" viewBox="0 0 126 21" fill="none" xmlns="http://www.w3.org/2000/svg">
<path d="M2.49596 4.128C2.49596 4.96 2.69862 5.68534 3.10396 6.304C3.50929 6.92267 3.99996 7.44534 4.57596 7.872C5.15196 8.27734 5.96262 8.8 7.00796 9.44C8.11729 10.1013 8.98129 10.656 9.59996 11.104C10.2186 11.552 10.7413 12.128 11.168 12.832C11.616 13.5147 11.84 14.336 11.84 15.296C11.84 16.32 11.584 17.248 11.072 18.08C10.56 18.912 9.80262 19.5733 8.79996 20.064C7.81862 20.5333 6.63462 20.768 5.24796 20.768C3.60529 20.768 2.10129 20.3947 0.735957 19.648C0.62929 19.584 0.554624 19.5093 0.511957 19.424C0.490624 19.3387 0.46929 19.2107 0.447957 19.04L0.0319571 14.688C0.0106238 14.6027 0.0532904 14.5493 0.159957 14.528C0.287957 14.5067 0.362624 14.5387 0.383957 14.624C0.703957 16.1387 1.33329 17.4613 2.27196 18.592C3.21062 19.7013 4.44796 20.256 5.98396 20.256C7.05062 20.256 7.94662 19.968 8.67196 19.392C9.41862 18.7947 9.79196 17.856 9.79196 16.576C9.79196 15.616 9.57862 14.784 9.15196 14.08C8.72529 13.376 8.20262 12.8 7.58396 12.352C6.98662 11.8827 6.16529 11.3387 5.11996 10.72C4.09596 10.1013 3.28529 9.568 2.68796 9.12C2.11196 8.672 1.62129 8.10667 1.21596 7.424C0.810624 6.74134 0.607957 5.94134 0.607957 5.024C0.607957 3.95734 0.88529 3.05067 1.43996 2.304C2.01596 1.536 2.75196 0.970669 3.64796 0.608002C4.56529 0.224002 5.53596 0.0320015 6.55996 0.0320015C7.81862 0.0320015 9.06662 0.288001 10.304 0.800001C10.624 0.906668 10.784 1.088 10.784 1.344L11.008 4.992C11.008 5.09867 10.944 5.152 10.816 5.152C10.7093 5.152 10.6453 5.10934 10.624 5.024C10.4746 3.91467 10.0266 2.89067 9.27996 1.952C8.53329 0.992001 7.45596 0.512001 6.04796 0.512001C4.85329 0.512001 3.95729 0.864002 3.35996 1.568C2.78396 2.25067 2.49596 3.104 2.49596 4.128ZM19.0147 17.664C19.0147 18.2827 19.068 18.7413 19.1747 19.04C19.3027 19.3387 19.5267 19.552 19.8467 19.68C20.188 19.808 20.6894 19.872 21.3507 19.872H23.4947C24.604 19.872 25.4894 19.52 26.1507 18.816C26.8334 18.112 27.292 17.1413 27.5267 15.904C27.5267 15.8613 27.5694 15.84 27.6547 15.84C27.7187 15.84 27.772 15.8507 27.8147 15.872C27.8787 15.8933 27.9107 15.9253 27.9107 15.968C27.7614 16.9493 27.6867 18.2613 27.6867 19.904C27.6867 20.0747 27.644 20.2027 27.5587 20.288C27.4947 20.352 27.3774 20.384 27.2067 20.384H14.6947C14.652 20.384 14.6307 20.32 14.6307 20.192C14.6307 20.064 14.652 20 14.6947 20C15.3987 20 15.9107 19.9467 16.2307 19.84C16.5507 19.7333 16.764 19.5307 16.8707 19.232C16.9774 18.912 17.0307 18.432 17.0307 17.792V8C17.0307 7.36 16.9667 6.89067 16.8387 6.592C16.732 6.29334 16.5187 6.09067 16.1987 5.984C15.8787 5.856 15.3774 5.792 14.6947 5.792C14.652 5.792 14.6307 5.728 14.6307 5.6C14.6307 5.472 14.652 5.408 14.6947 5.408L16.1347 5.44C16.9454 5.48267 17.5747 5.504 18.0227 5.504C18.556 5.504 19.228 5.48267 20.0387 5.44L21.3827 5.408C21.4467 5.408 21.4787 5.472 21.4787 5.6C21.4787 5.728 21.4467 5.792 21.3827 5.792C20.6787 5.792 20.1667 5.856 19.8467 5.984C19.5267 6.09067 19.3027 6.304 19.1747 6.624C19.068 6.92267 19.0147 7.392 19.0147 8.032V17.664ZM37.1872 20.768C35.6939 20.768 34.3605 20.416 33.1872 19.712C32.0352 19.008 31.1392 18.0587 30.4992 16.864C29.8592 15.6693 29.5392 14.3787 29.5392 12.992C29.5392 11.328 29.9659 9.89867 30.8192 8.704C31.6939 7.488 32.7925 6.57067 34.1152 5.952C35.4592 5.33334 36.8245 5.024 38.2112 5.024C39.7045 5.024 41.0165 5.39734 42.1472 6.144C43.2992 6.86934 44.1739 7.81867 44.7712 8.992C45.3899 10.1653 45.6992 11.392 45.6992 12.672C45.6992 14.1013 45.3152 15.4453 44.5472 16.704C43.7792 17.9413 42.7445 18.9333 41.4432 19.68C40.1419 20.4053 38.7232 20.768 37.1872 20.768ZM38.0192 20.096C39.6832 20.096 41.0059 19.5093 41.9872 18.336C42.9899 17.1627 43.4912 15.5413 43.4912 13.472C43.4912 12.0427 43.2352 10.7413 42.7232 9.568C42.2325 8.39467 41.5072 7.456 40.5472 6.752C39.5872 6.048 38.4459 5.696 37.1232 5.696C35.4165 5.696 34.0939 6.272 33.1552 7.424C32.2165 8.55467 31.7472 10.144 31.7472 12.192C31.7472 13.664 31.9925 14.9973 32.4832 16.192C32.9952 17.3867 33.7205 18.336 34.6592 19.04C35.6192 19.744 36.7392 20.096 38.0192 20.096ZM52.296 17.664C52.296 18.3467 52.3706 18.848 52.52 19.168C52.6693 19.4667 52.9573 19.68 53.384 19.808C53.832 19.936 54.5253 20 55.464 20C55.528 20 55.56 20.064 55.56 20.192C55.56 20.32 55.528 20.384 55.464 20.384C54.696 20.384 54.1093 20.3733 53.704 20.352L51.336 20.32L49.448 20.352C49.0853 20.3733 48.5946 20.384 47.976 20.384C47.9333 20.384 47.912 20.32 47.912 20.192C47.912 20.064 47.9333 20 47.976 20C48.68 20 49.192 19.9467 49.512 19.84C49.832 19.7333 50.0453 19.5307 50.152 19.232C50.28 18.912 50.344 18.432 50.344 17.792V8C50.344 7.36 50.28 6.89067 50.152 6.592C50.0453 6.29334 49.8213 6.09067 49.48 5.984C49.16 5.856 48.6586 5.792 47.976 5.792C47.9333 5.792 47.912 5.728 47.912 5.6C47.912 5.472 47.9333 5.408 47.976 5.408L49.416 5.44C50.2266 5.48267 50.856 5.504 51.304 5.504C51.6666 5.504 52.008 5.49334 52.328 5.472C52.6693 5.45067 52.9573 5.42934 53.192 5.408C53.8746 5.344 54.4933 5.312 55.048 5.312C58.568 5.312 60.328 6.61334 60.328 9.216C60.328 10.24 60.0613 11.104 59.528 11.808C59.016 12.4907 58.3546 13.0027 57.544 13.344C56.7546 13.6853 55.9333 13.856 55.08 13.856C54.504 13.856 54.0346 13.8133 53.672 13.728C53.608 13.728 53.576 13.6747 53.576 13.568C53.576 13.3973 53.64 13.312 53.768 13.312C54.088 13.376 54.4186 13.408 54.76 13.408C55.6986 13.408 56.488 13.1093 57.128 12.512C57.7893 11.8933 58.12 11.008 58.12 9.856C58.12 8.512 57.768 7.49867 57.064 6.816C56.3813 6.112 55.4533 5.76 54.28 5.76C53.7253 5.76 53.32 5.80267 53.064 5.888C52.808 5.97334 52.616 6.176 52.488 6.496C52.36 6.816 52.296 7.33867 52.296 8.064V17.664ZM69.9252 20.768C68.4105 20.768 67.1092 20.416 66.0212 19.712C64.9545 18.9867 64.1439 18.048 63.5892 16.896C63.0559 15.744 62.7892 14.5067 62.7892 13.184C62.7892 11.712 63.1412 10.3573 63.8452 9.12C64.5492 7.86134 65.4879 6.86934 66.6612 6.144C67.8345 5.41867 69.1145 5.056 70.5012 5.056C71.9305 5.056 73.0079 5.45067 73.7332 6.24C74.4585 7.02934 74.8212 8.096 74.8212 9.44C74.8212 9.65334 74.7892 9.81334 74.7252 9.92C74.6825 10.0053 74.5865 10.048 74.4372 10.048H72.5492C72.5705 9.87734 72.5812 9.64267 72.5812 9.344C72.5812 8.17067 72.3252 7.27467 71.8132 6.656C71.3012 6.016 70.5332 5.696 69.5092 5.696C68.6345 5.696 67.8452 5.952 67.1412 6.464C66.4372 6.976 65.8825 7.712 65.4772 8.672C65.0932 9.632 64.9012 10.7627 64.9012 12.064C64.9012 13.5147 65.1465 14.8267 65.6372 16C66.1279 17.152 66.8425 18.0587 67.7812 18.72C68.7199 19.3813 69.8185 19.712 71.0772 19.712C71.6959 19.712 72.3252 19.6267 72.9652 19.456C73.6052 19.2853 74.1705 19.0187 74.6612 18.656H74.6932C74.7572 18.656 74.8105 18.6987 74.8532 18.784C74.9172 18.848 74.9279 18.912 74.8852 18.976C73.3705 20.1707 71.7172 20.768 69.9252 20.768ZM64.2292 9.632L73.1572 9.472V10.048L64.2612 10.08L64.2292 9.632ZM84.4677 20.512C83.8704 20.512 83.1984 20.48 82.4517 20.416C82.1957 20.3947 81.8757 20.3733 81.4917 20.352C81.1077 20.3307 80.6704 20.32 80.1797 20.32L78.2917 20.352C77.929 20.3733 77.4384 20.384 76.8197 20.384C76.777 20.384 76.7557 20.32 76.7557 20.192C76.7557 20.064 76.777 20 76.8197 20C77.545 20 78.0677 19.9467 78.3877 19.84C78.729 19.7333 78.953 19.5307 79.0597 19.232C79.1877 18.912 79.2517 18.432 79.2517 17.792V8C79.2517 7.36 79.1877 6.89067 79.0597 6.592C78.953 6.29334 78.729 6.09067 78.3877 5.984C78.0677 5.856 77.5557 5.792 76.8517 5.792C76.809 5.792 76.7877 5.728 76.7877 5.6C76.7877 5.472 76.809 5.408 76.8517 5.408L78.2917 5.44C79.1024 5.48267 79.7317 5.504 80.1797 5.504C80.841 5.504 81.5024 5.472 82.1637 5.408C83.017 5.36534 83.657 5.344 84.0837 5.344C85.8757 5.344 87.4224 5.664 88.7237 6.304C90.025 6.944 91.017 7.82934 91.6997 8.96C92.3824 10.0907 92.7237 11.3707 92.7237 12.8C92.7237 14.272 92.3717 15.5947 91.6677 16.768C90.9637 17.9413 89.9824 18.8587 88.7237 19.52C87.4864 20.1813 86.0677 20.512 84.4677 20.512ZM84.0837 20.064C86.089 20.064 87.6464 19.4667 88.7557 18.272C89.865 17.0773 90.4197 15.3707 90.4197 13.152C90.4197 11.0187 89.865 9.25867 88.7557 7.872C87.6677 6.48534 86.025 5.792 83.8277 5.792C82.8464 5.792 82.153 5.952 81.7477 6.272C81.3637 6.592 81.1717 7.18934 81.1717 8.064V17.44C81.1717 18.4 81.3637 19.0827 81.7477 19.488C82.153 19.872 82.9317 20.064 84.0837 20.064ZM99.5832 17.792C99.5832 18.4533 99.6365 18.9333 99.7432 19.232C99.8712 19.5307 100.095 19.7333 100.415 19.84C100.735 19.9467 101.258 20 101.983 20C102.026 20 102.047 20.064 102.047 20.192C102.047 20.32 102.026 20.384 101.983 20.384C101.386 20.384 100.917 20.3733 100.575 20.352L98.5592 20.32L96.6712 20.352C96.3085 20.3733 95.8179 20.384 95.1992 20.384C95.1565 20.384 95.1352 20.32 95.1352 20.192C95.1352 20.064 95.1565 20 95.1992 20C95.9245 20 96.4472 19.9467 96.7672 19.84C97.0872 19.7333 97.3005 19.5307 97.4072 19.232C97.5352 18.9333 97.5992 18.4533 97.5992 17.792V8C97.5992 7.36 97.5352 6.89067 97.4072 6.592C97.3005 6.29334 97.0765 6.09067 96.7352 5.984C96.4152 5.856 95.9032 5.792 95.1992 5.792C95.1565 5.792 95.1352 5.728 95.1352 5.6C95.1352 5.472 95.1565 5.408 95.1992 5.408L96.6712 5.44C97.4392 5.48267 98.0685 5.504 98.5592 5.504C99.1139 5.504 99.7965 5.48267 100.607 5.44L101.983 5.408C102.026 5.408 102.047 5.472 102.047 5.6C102.047 5.728 102.026 5.792 101.983 5.792C101.301 5.792 100.789 5.856 100.447 5.984C100.106 6.112 99.8712 6.336 99.7432 6.656C99.6365 6.95467 99.5832 7.424 99.5832 8.064V17.792ZM110.558 9.12H117.15L117.374 9.792H110.078L110.558 9.12ZM125.63 20C125.716 20 125.758 20.064 125.758 20.192C125.758 20.32 125.716 20.384 125.63 20.384C125.225 20.384 124.596 20.3627 123.742 20.32C122.889 20.2773 122.27 20.256 121.886 20.256C121.417 20.256 120.82 20.2773 120.094 20.32C119.412 20.3627 118.889 20.384 118.526 20.384C118.441 20.384 118.398 20.32 118.398 20.192C118.398 20.064 118.441 20 118.526 20C119.337 20 119.913 19.9253 120.254 19.776C120.617 19.6267 120.798 19.36 120.798 18.976C120.798 18.656 120.67 18.208 120.414 17.632L113.31 2.624L114.11 1.632L107.902 16.32C107.604 17.0453 107.454 17.6427 107.454 18.112C107.454 19.3707 108.5 20 110.59 20C110.697 20 110.75 20.064 110.75 20.192C110.75 20.32 110.697 20.384 110.59 20.384C110.206 20.384 109.652 20.3627 108.926 20.32C108.116 20.2773 107.412 20.256 106.814 20.256C106.26 20.256 105.62 20.2773 104.894 20.32C104.254 20.3627 103.721 20.384 103.294 20.384C103.188 20.384 103.134 20.32 103.134 20.192C103.134 20.064 103.188 20 103.294 20C103.892 20 104.393 19.8933 104.798 19.68C105.225 19.4453 105.62 19.0507 105.982 18.496C106.366 17.92 106.782 17.0987 107.23 16.032L113.982 0.0960026C114.025 0.0320021 114.1 1.90735e-06 114.206 1.90735e-06C114.313 1.90735e-06 114.377 0.0320021 114.398 0.0960026L121.95 16C122.676 17.5787 123.294 18.6453 123.806 19.2C124.318 19.7333 124.926 20 125.63 20Z" fill="black"/>
</svg>
