<svg width="55" height="55" viewBox="0 0 55 55" fill="none" xmlns="http://www.w3.org/2000/svg">
<rect width="55" height="55" rx="6" fill="#292E42"/>
<path d="M24.8383 6.136C31.4516 6.136 36.5289 7.30933 40.0703 9.656C43.6116 11.96 45.3823 15.7573 45.3823 21.048C45.3823 26.3813 43.5903 30.2427 40.0063 32.632C36.4223 34.9787 31.3023 36.152 24.6463 36.152H21.5103V51H11.5263V7.288C13.7023 6.86133 16.0063 6.56267 18.4383 6.392C20.8703 6.22133 23.0036 6.136 24.8383 6.136ZM25.4783 14.648C24.7529 14.648 24.0276 14.6693 23.3022 14.712C22.6196 14.7547 22.0223 14.7973 21.5103 14.84V27.64H24.6463C28.1023 27.64 30.7049 27.1707 32.4543 26.232C34.2036 25.2933 35.0783 23.544 35.0783 20.984C35.0783 19.7467 34.8436 18.7227 34.3743 17.912C33.9476 17.1013 33.3076 16.4613 32.4543 15.992C31.6436 15.48 30.6409 15.1387 29.4463 14.968C28.2516 14.7547 26.9289 14.648 25.4783 14.648Z" fill="#9ECE6A"/>
</svg>
